<?xml version="1.0" standalone="no"?>
<!DOCTYPE svg PUBLIC "-//W3C//DTD SVG 1.1//EN" "http://www.w3.org/Graphics/SVG/1.1/DTD/svg11.dtd" >
<svg xmlns="http://www.w3.org/2000/svg">
<metadata>Generated by IcoMoon</metadata>
<defs>
<font id="TAPicons" horiz-adv-x="1024">
<font-face units-per-em="1024" ascent="960" descent="-64" />
<missing-glyph horiz-adv-x="1024" />
<glyph unicode="&#x20;" horiz-adv-x="512" d="" />
<glyph unicode="&#xe600;" glyph-name="bottom" d="M516.114 267.288c-11.3 0-22.576 4.325-31.226 12.926l-279.215 279.215c-17.227 17.203-17.227 45.152 0 62.38s45.14 17.227 62.368 0l248.049-248.013 248.037 248.013c17.227 17.227 45.176 17.227 62.404 0s17.227-45.152 0-62.38l-279.215-279.215c-8.626-8.626-19.902-12.926-31.202-12.926z" />
<glyph unicode="&#xe601;" glyph-name="left" d="M338.197 475.106l279.215 279.215c17.227 17.227 45.152 17.227 62.38 0s17.227-45.176 0-62.404l-248.013-248.037 248.013-248.049c17.227-17.227 17.227-45.14 0-62.368s-45.176-17.227-62.38 0l-279.215 279.215c-8.602 8.65-12.926 19.926-12.926 31.226s4.301 22.576 12.926 31.202z" />
<glyph unicode="&#xe602;" glyph-name="right" d="M692.712 443.904c0-11.3-4.325-22.576-12.926-31.226l-279.215-279.215c-17.203-17.227-45.152-17.227-62.38 0s-17.227 45.14 0 62.368l248.013 248.049-248.013 248.037c-17.227 17.227-17.227 45.176 0 62.404s45.152 17.227 62.38 0l279.215-279.215c8.626-8.626 12.926-19.902 12.926-31.202z" />
<glyph unicode="&#xe603;" glyph-name="top" d="M547.316 621.803l279.215-279.215c17.227-17.227 17.227-45.152 0-62.38s-45.176-17.227-62.404 0l-248.037 248.013-248.049-248.013c-17.227-17.227-45.14-17.227-62.368 0s-17.227 45.176 0 62.38l279.215 279.215c8.65 8.602 19.926 12.926 31.226 12.926s22.576-4.301 31.202-12.926z" />
<glyph unicode="&#xe604;" glyph-name="date1" d="M706.243 187.257h-388.482c-34.286 0-62.187 27.889-62.187 62.175v260.482h512.843v-260.482c0-34.286-27.889-62.175-62.175-62.175zM317.762 659.755h35.707v-23.010c0-11.168 9.047-20.215 20.215-20.215s20.215 9.047 20.215 20.215v23.010h241.965v-23.010c0-11.168 9.059-20.215 20.227-20.215 11.156 0 20.215 9.047 20.215 20.215v23.010h29.937c34.286 0 62.175-27.889 62.175-62.175v-47.237h-512.843v47.237c0 34.286 27.901 62.175 62.187 62.175zM706.243 700.185h-29.937v28.78c0 11.156-9.059 20.215-20.215 20.215-11.168 0-20.227-9.059-20.227-20.215v-28.78h-241.965v28.78c0 11.156-9.047 20.215-20.215 20.215s-20.215-9.059-20.215-20.215v-28.78h-35.707c-56.585 0-102.617-46.032-102.617-102.605v-348.148c0-56.585 46.032-102.605 102.617-102.605h388.482c56.585 0 102.617 46.020 102.617 102.605v348.148c0 56.573-46.032 102.605-102.617 102.605zM533.223 433.578c-7.903 7.903-20.685 7.903-28.588 0l-58.356-58.356c-3.795-3.783-5.915-8.927-5.915-14.288 0-5.373 2.12-10.505 5.915-14.3l58.356-58.344c3.951-3.951 9.12-5.927 14.3-5.927 5.168 0 10.348 1.976 14.288 5.927 7.903 7.891 7.903 20.697 0 28.588l-44.056 44.056 44.056 44.056c7.903 7.891 7.903 20.697 0 28.588z" />
<glyph unicode="&#xe605;" glyph-name="date2" d="M707.942 181.234h-388.482c-34.286 0-62.175 27.889-62.175 62.175v260.482h512.843v-260.482c0-34.286-27.901-62.175-62.187-62.175zM319.46 653.731h29.937v-23.010c0-11.168 9.059-20.215 20.227-20.215 11.156 0 20.215 9.047 20.215 20.215v23.010h241.965v-23.010c0-11.168 9.047-20.215 20.215-20.215s20.215 9.047 20.215 20.215v23.010h35.707c34.286 0 62.187-27.889 62.187-62.175v-47.237h-512.843v47.237c0 34.286 27.889 62.175 62.175 62.175zM707.942 694.161h-35.707v28.78c0 11.156-9.047 20.215-20.215 20.215s-20.215-9.059-20.215-20.215v-28.78h-241.965v28.78c0 11.156-9.059 20.215-20.215 20.215-11.168 0-20.227-9.059-20.227-20.215v-28.78h-29.937c-56.585 0-102.617-46.032-102.617-102.605v-348.148c0-56.585 46.032-102.605 102.617-102.605h388.482c56.585 0 102.617 46.020 102.617 102.605v348.148c0 56.573-46.032 102.605-102.617 102.605zM497.96 427.555c-7.891 7.903-20.697 7.903-28.588 0-7.903-7.891-7.903-20.697 0-28.588l44.056-44.056-44.056-44.056c-7.903-7.891-7.903-20.697 0-28.588 3.951-3.951 9.12-5.927 14.3-5.927 5.168 0 10.336 1.976 14.288 5.927l58.356 58.344c3.795 3.795 5.927 8.927 5.927 14.3 0 5.361-2.132 10.505-5.927 14.288l-58.356 58.356z" />
<glyph unicode="&#xe606;" glyph-name="time" d="M518.021 181.343c-143.709 0-260.626 116.917-260.626 260.638 0 143.709 116.917 260.626 260.626 260.626 143.721 0 260.638-116.917 260.638-260.626 0-143.721-116.917-260.638-260.638-260.638zM518.021 743.158c-166.069 0-301.176-135.108-301.176-301.176s135.108-301.176 301.176-301.176c166.069 0 301.176 135.108 301.176 301.176s-135.108 301.176-301.176 301.176zM601.408 462.248h-63.115v128.964c0 11.192-9.083 20.263-20.275 20.263s-20.275-9.071-20.275-20.263v-149.239c0-11.192 9.083-20.263 20.275-20.263h83.39c11.192 0 20.275 9.071 20.275 20.263s-9.083 20.275-20.275 20.275z" />
<glyph unicode="&#xe607;" glyph-name="multi-city" d="M826.34 524.602h-341.57v104.303h341.667l51.718-51.706-51.814-52.597zM550.655 296.311h-341.57l-51.802 52.597 51.706 51.706h341.667v-104.303zM921.066 591.656l-71.897 71.885c-3.795 3.795-8.951 5.927-14.336 5.927h-300.442v53.405c0 11.204-9.083 20.275-20.287 20.275-11.192 0-20.275-9.071-20.275-20.275v-53.405h-29.335c-11.204 0-20.287-9.071-20.287-20.275v-144.878c0-11.192 9.083-20.275 20.287-20.275h29.335v-42.863h-293.237c-5.385 0-10.541-2.132-14.348-5.939l-71.873-71.873c-7.891-7.879-7.939-20.637-0.12-28.576l71.885-72.993c3.819-3.867 9.023-6.048 14.456-6.048h293.237v-94.666c0-11.204 9.083-20.287 20.275-20.287 11.204 0 20.287 9.083 20.287 20.287v94.666h36.539c11.204 0 20.287 9.083 20.287 20.275v144.878c0 11.204-9.083 20.275-20.287 20.275h-36.539v42.863h300.442c5.433 0 10.638 2.181 14.444 6.048l71.897 72.993c7.819 7.927 7.758 20.685-0.108 28.576v0z" />
<glyph unicode="&#xe608;" glyph-name="plane" horiz-adv-x="1004" d="M745.647 401.433h-178.863c-6.686 0-12.939-3.301-16.709-8.806l-144.806-211.281h-26.082l71.716 192.741c2.313 6.228 1.434 13.192-2.349 18.637-3.795 5.457-10.011 8.71-16.649 8.71h-133.674c-6.252 0-12.143-2.879-15.986-7.806l-39.069-50.116h-16.709l21.649 93.75c0.699 3.012 0.699 6.12 0.012 9.12l-21.673 94.051h16.721l39.069-50.104c3.843-4.927 9.734-7.806 15.986-7.806h133.674c6.638 0 12.854 3.253 16.649 8.698 3.783 5.457 4.662 12.421 2.349 18.637l-71.716 192.753h26.082l144.806-211.281c3.771-5.518 10.023-8.806 16.709-8.806h180.067c34.828 0 50.429-20.227 50.429-40.261 0-20.323-15.962-40.827-51.634-40.827zM746.851 523.060h-169.382l-144.794 211.281c-3.783 5.518-10.035 8.806-16.721 8.806h-65.934c-6.65 0-12.866-3.253-16.649-8.698-3.795-5.457-4.674-12.408-2.349-18.637l71.704-192.753h-94.606l-39.069 50.116c-3.831 4.927-9.734 7.806-15.986 7.806h-52.091c-6.168 0-12.011-2.819-15.866-7.65-3.843-4.831-5.277-11.156-3.891-17.179l26.347-114.315-26.335-114.025c-1.397-6.036 0.036-12.348 3.879-17.191 3.855-4.831 9.686-7.65 15.866-7.65h52.091c6.252 0 12.155 2.879 15.986 7.806l39.069 50.116h94.606l-71.704-192.753c-2.325-6.228-1.446-13.179 2.349-18.637 3.783-5.457 9.999-8.71 16.649-8.71h65.934c6.686 0 12.939 3.301 16.721 8.818l144.794 211.281h168.177c60.512 0 92.172 40.924 92.172 81.366 0 40.153-31.25 80.8-90.967 80.8z" />
<glyph unicode="&#xe609;" glyph-name="ida-volta" d="M407.828 516.647c-6.277 0-12.168-3.096-15.733-8.288l-104.918-153.154h-10.915l50.501 135.734c2.168 5.855 1.349 12.408-2.217 17.528-3.554 5.132-9.397 8.18-15.649 8.18h-98.051c-5.867 0-11.421-2.711-15.035-7.337l-27.383-35.141h-4.927l14.685 63.621c0.651 2.819 0.651 5.746 0 8.565l-14.697 63.825h4.939l27.395-35.117c3.614-4.638 9.156-7.337 15.023-7.337h98.051c6.252 0 12.095 3.060 15.649 8.18 3.566 5.132 4.385 11.674 2.217 17.528l-50.501 135.698h10.878l104.966-153.154c3.554-5.18 9.445-8.288 15.721-8.288h132.060c0.313 0 0.626 0.012 0.928 0.024 23.504-0.349 31.889-13.794 31.889-25.323 0-11.878-8.818-25.745-33.659-25.745h-131.217zM610.821 542.391c0 31.527-24.371 63.452-70.933 63.452-0.349 0-0.723-0.012-1.072-0.036h-120.94l-104.966 153.154c-3.554 5.18-9.433 8.288-15.721 8.288h-48.345c-6.252 0-12.095-3.060-15.649-8.18-3.566-5.132-4.385-11.674-2.217-17.528l50.501-135.698h-61.32l-27.407 35.117c-3.602 4.626-9.144 7.337-15.023 7.337h-38.201c-5.807 0-11.288-2.65-14.914-7.192-3.614-4.542-4.963-10.493-3.65-16.155l19.083-82.872-19.083-82.679c-1.313-5.662 0.036-11.613 3.65-16.155s9.108-7.204 14.914-7.204h38.201c5.879 0 11.433 2.723 15.035 7.337l27.395 35.153h61.32l-50.501-135.734c-2.168-5.855-1.349-12.396 2.217-17.528 3.554-5.12 9.397-8.18 15.649-8.18h48.381c6.289 0 12.168 3.096 15.733 8.288l104.918 153.154h121.169c47.128 0 71.776 32.117 71.776 63.861v0zM860.688 283.876l-27.407 35.129c-3.614 4.626-9.156 7.325-15.023 7.325h-98.051c-6.252 0-12.095-3.048-15.649-8.18-3.566-5.12-4.385-11.674-2.217-17.516l50.513-135.734h-10.878l-104.978 153.154c-3.554 5.192-9.445 8.276-15.721 8.276h-130.855c-0.386 0.024-0.783 0.036-1.169 0.036-24.215 0-32.804 13.649-32.804 25.335 0 11.866 8.818 25.745 33.659 25.745h131.168c6.277 0 12.168 3.084 15.721 8.276l104.978 153.154h10.915l-50.513-135.734c-2.168-5.843-1.349-12.396 2.217-17.516 3.554-5.12 9.397-8.18 15.649-8.18h98.039c5.879 0 11.433 2.699 15.047 7.337l27.395 35.141h4.891l-14.697-63.608c-0.638-2.831-0.638-5.758 0-8.578l14.709-63.861h-4.939zM889.058 352.014l19.095 82.679c1.313 5.662-0.036 11.601-3.65 16.143-3.614 4.554-9.108 7.204-14.926 7.204h-38.165c-5.867 0-11.421-2.711-15.035-7.337l-27.395-35.141h-61.32l50.513 135.734c2.168 5.855 1.349 12.396-2.217 17.516-3.554 5.132-9.397 8.192-15.649 8.192h-48.381c-6.289 0-12.168-3.108-15.721-8.288l-104.978-153.154h-121.121c-26.913 0-43.526-10.493-52.73-19.311-12.276-11.746-19.058-27.576-19.058-44.55 0-31.238 23.925-62.85 69.632-63.44 0.434-0.036 0.867-0.048 1.301-0.048h121.976l104.978-153.154c3.554-5.18 9.433-8.276 15.721-8.276h48.345c6.252 0 12.095 3.060 15.649 8.192 3.566 5.108 4.385 11.662 2.217 17.516l-50.513 135.722h61.32l27.407-35.129c3.614-4.614 9.156-7.325 15.035-7.325h38.189c5.819 0 11.3 2.65 14.926 7.192 3.614 4.542 4.963 10.493 3.65 16.143l-19.095 82.92z" />
<glyph unicode="&#xe60a;" glyph-name="close" d="M518.026 181.343c-143.721 0-260.638 116.917-260.638 260.638 0 143.709 116.917 260.626 260.638 260.626s260.638-116.917 260.638-260.626c0-143.721-116.917-260.638-260.638-260.638zM518.026 743.158c-166.069 0-301.176-135.108-301.176-301.176s135.108-301.176 301.176-301.176c166.069 0 301.176 135.108 301.176 301.176s-135.108 301.176-301.176 301.176zM624.232 548.806c-7.915 7.915-20.757 7.915-28.66 0l-77.547-77.535-77.535 77.535c-7.927 7.915-20.757 7.915-28.672 0s-7.915-20.757 0-28.672l77.535-77.535-77.535-77.535c-7.915-7.915-7.915-20.757 0-28.672 3.963-3.963 9.144-5.939 14.336-5.939 5.18 0 10.373 1.976 14.336 5.939l77.535 77.535 77.547-77.535c3.951-3.963 9.144-5.939 14.324-5.939 5.192 0 10.373 1.976 14.336 5.939 7.915 7.915 7.915 20.757 0 28.672l-77.535 77.535 77.535 77.535c7.915 7.915 7.915 20.757 0 28.672z" />
<glyph unicode="&#xe60b;" glyph-name="train" d="M691.705 333.384c-1.108 0.747-2.253 1.385-3.47 1.843-1.217 0.53-2.494 0.928-3.819 1.169-2.614 0.518-5.277 0.518-7.879 0-1.325-0.241-2.602-0.638-3.819-1.169-1.217-0.458-2.373-1.096-3.482-1.843-1.096-0.747-2.132-1.566-3.060-2.494-0.988-0.988-1.795-1.964-2.554-3.12-0.747-1.108-1.325-2.265-1.843-3.482-0.53-1.217-0.928-2.482-1.169-3.819-0.289-1.265-0.398-2.602-0.398-3.927 0-1.337 0.108-2.674 0.398-3.939 0.241-1.337 0.638-2.602 1.169-3.819 0.518-1.217 1.096-2.373 1.843-3.482 0.759-1.096 1.566-2.144 2.554-3.060 0.928-0.928 1.964-1.807 3.060-2.554 1.108-0.699 2.265-1.325 3.482-1.855 1.217-0.518 2.494-0.867 3.819-1.157 1.265-0.229 2.602-0.398 3.939-0.398 1.325 0 2.662 0.169 3.939 0.398 1.325 0.289 2.602 0.638 3.819 1.157 1.217 0.53 2.361 1.157 3.47 1.855 1.108 0.747 2.144 1.626 3.072 2.554 3.819 3.759 5.951 8.963 5.951 14.3 0 5.325-2.132 10.529-5.951 14.348-0.928 0.928-1.964 1.747-3.072 2.494zM338.73 330.892c-0.928-0.916-1.735-1.964-2.482-3.060-0.759-1.169-1.397-2.325-1.855-3.542-0.53-1.217-0.928-2.482-1.157-3.759-0.301-1.325-0.41-2.662-0.41-4 0-5.325 2.144-10.529 5.903-14.288 0.988-0.928 1.976-1.807 3.132-2.554 1.096-0.699 2.253-1.325 3.47-1.855 1.217-0.518 2.494-0.867 3.759-1.157 1.337-0.289 2.662-0.398 4-0.398 1.325 0 2.662 0.108 3.939 0.398 1.325 0.289 2.602 0.638 3.819 1.157 1.217 0.53 2.373 1.157 3.47 1.855 1.108 0.747 2.144 1.626 3.072 2.554 3.759 3.759 5.963 8.963 5.963 14.288 0 5.337-2.144 10.541-5.963 14.36-7.529 7.529-21.131 7.529-28.66 0zM708.519 262.364h-383.482c-30.66 0-55.621 24.949-55.621 55.621v50.068h494.725v-50.068c0-30.672-24.949-55.621-55.621-55.621v0zM345.3 181.589v40.249h342.956v-40.249h-342.956zM325.037 702.624h383.482c30.672 0 55.621-24.949 55.621-55.621v-27.913h-494.725v27.913c0 30.672 24.962 55.621 55.621 55.621v0zM269.416 408.58v169.984h494.725v-169.984h-494.725zM708.519 743.151h-383.482c-53.007 0-96.148-43.128-96.148-96.148v-329.017c0-46.056 32.575-84.619 75.896-93.955v-42.442h-55.633c-11.192 0-20.263-9.071-20.263-20.263 0-11.18 9.071-20.263 20.263-20.263h73.258c0.867-0.108 1.735-0.265 2.626-0.265 0.904 0 1.771 0.157 2.638 0.265h456.728c11.192 0 20.263 9.083 20.263 20.263 0 11.192-9.071 20.263-20.263 20.263h-55.621v42.442c43.309 9.336 75.884 47.899 75.884 93.955v329.017c0 53.019-43.128 96.148-96.148 96.148v0zM609.343 336.403h-185.127c-11.192 0-20.263-9.071-20.263-20.263s9.071-20.263 20.263-20.263h185.127c11.192 0 20.263 9.071 20.263 20.263s-9.071 20.263-20.263 20.263z" />
<glyph unicode="&#xe60c;" glyph-name="ensurance" d="M620.619 255.846c-34.912-13.999-73.885-29.624-108.46-60.32-33.563 30.298-72.306 45.827-107.014 59.741-76.21 30.551-136.409 54.682-136.409 213.004v150.986h486.52v-150.986c0-158.455-59.416-182.272-134.638-212.426v0zM268.736 659.796v48.839h486.52v-48.839h-486.52zM775.532 749.173h-527.059c-11.204 0-20.275-9.071-20.275-20.263v-260.638c0-185.742 82.281-218.726 161.852-250.627 39.394-15.794 76.595-30.708 106.93-64.163 3.807-4.204 9.204-6.614 14.866-6.662h0.157c5.602 0 10.975 2.337 14.806 6.433 31.828 34.057 71.005 49.766 108.905 64.958 78.703 31.551 160.081 64.187 160.081 250.061v260.638c0 11.192-9.071 20.263-20.263 20.263v0zM520.415 452.753c-31.455 8.698-49.682 15.95-49.682 27.323v0.783c0 11.433 15.529 23.251 41.49 23.251 17.336 0 37.49-6.698 52.597-17.492 3.831-2.735 8.638-3.807 13.276-2.939s8.722 3.578 11.324 7.517l4.554 6.903c5.18 7.855 3.168 18.408-4.542 23.805-14.697 10.288-31.828 17.613-49.333 21.468v21.058c0 11.192-9.083 20.275-20.275 20.275s-20.275-9.083-20.275-20.275v-18.709c-41.791-4.554-70.945-30.551-70.945-65.271v-0.759c0-44.996 45.020-57.802 81.209-68.090l2.988-0.843c29.431-8.3 48.73-14.818 48.73-29.178v-0.783c0-13.878-20.010-25.166-44.61-25.166-21.793 0-45.972 8.879-63.090 23.179-3.638 3.036-8.349 4.469-13.071 3.927-4.71-0.53-8.999-2.952-11.878-6.722l-4.975-6.517c-5.638-7.385-4.482-17.89 2.638-23.853 20.046-16.83 46.441-27.913 73.005-31.262v-15.818c0-11.192 9.083-20.263 20.275-20.263s20.275 9.071 20.275 20.263v16.998c37.924 7.529 63.572 32.804 63.572 65.644v0.747c0 48.068-48.152 61.211-83.257 70.801z" />
<glyph unicode="&#xe60d;" glyph-name="extra" d="M404.081 418.63c-14.637 0-26.516-11.866-26.516-26.516 0-14.637 11.878-26.516 26.516-26.516 14.649 0 26.516 11.878 26.516 26.516 0 14.649-11.866 26.516-26.516 26.516zM823.755 263.781h-21.167v106.665h21.167c16.276 0 31.431 4.698 44.273 12.674v-75.945c0-22.709-21.094-43.394-44.273-43.394v0zM696.598 359.507c0.133 2 0.301 3.988 0.301 6.011 0 1.024-0.157 2-0.301 2.976v1.952h65.44v-106.665h-65.44v95.726zM614.919 181.343h-18.432v100.786h18.432c14.999 0 29.021 4.18 41.129 11.372v-70.692c0-22.865-18.444-41.466-41.129-41.466v0zM148.963 222.809v70.776c12.18-7.24 26.323-11.457 41.442-11.457h24.010v-100.786h-21.155c-23.6 0-44.297 19.384-44.297 41.466v0zM148.963 485.086c0 22.793 21.528 44.345 44.297 44.345h21.155v-206.764h-24.010c-22.841 0-41.442 18.902-41.442 42.141v120.278zM404.084 624.121c33.419 0 61.476-23.094 69.246-54.139h-138.481c7.758 31.045 35.816 54.139 69.234 54.139v0zM612.919 702.607c31.527 0 58.127-21.263 66.343-50.188h-132.674c8.216 28.925 34.804 50.188 66.331 50.188v0zM614.919 569.981h-100.316c-2.373 15.191-7.782 29.359-15.625 41.888h263.060v-200.873h-65.44v74.089c0 46.020-37.406 84.896-81.679 84.896v0zM596.487 529.431h18.432c21.914 0 41.129-20.721 41.129-44.345v-124.41c-2.409-21.046-20.251-38.008-41.129-38.008h-18.432v206.764zM254.965 181.343v100.786h300.984v-100.786h-300.984zM254.965 322.667v206.764h300.984v-206.764h-300.984zM868.028 569.451v-109.363c-0.964-2.373-1.518-4.951-1.518-7.662 0-22.468-19.576-41.43-42.755-41.43h-21.167v200.873h21.167c23.179 0 44.273-20.215 44.273-42.418v0zM823.755 652.419h-103.002c-8.975 51.453-53.85 90.738-107.833 90.738s-98.858-39.285-107.821-90.738h-48.61c-0.494 0-0.952-0.108-1.434-0.145-15.312 7.867-32.611 12.396-50.971 12.396-55.85 0-102.147-41.141-110.508-94.69h-100.316c-45.201 0-84.835-39.671-84.835-84.896v-262.277c0-44.454 38.84-82.004 84.835-82.004h421.659c45.032 0 81.679 36.78 81.679 82.004v0.434h127.157c45.189 0 84.823 39.225 84.823 83.932v262.277c0 44.972-38.84 82.968-84.823 82.968v0z" />
<glyph unicode="&#xe60e;" glyph-name="user" d="M762.068 181.343h-504.314c-0.205 9.903-0.361 20.697-0.361 24.66 0 90.594 48.995 174.779 127.88 219.69 5.144 2.927 8.758 7.975 9.867 13.782 1.12 5.819-0.361 11.842-4.060 16.468-21.709 27.226-33.19 59.946-33.19 94.654 0 83.823 68.198 152.010 152.022 152.010s152.010-68.186 152.010-152.010c0-34.708-11.469-67.427-33.19-94.654-3.686-4.626-5.168-10.65-4.060-16.456 1.12-5.819 4.734-10.866 9.879-13.794 78.884-44.923 127.88-129.096 127.88-219.69 0-3.963-0.157-14.758-0.361-24.66zM673.534 449.173c18.998 30.395 28.937 65.054 28.937 101.424 0 106.171-86.377 192.56-192.56 192.56s-192.56-86.389-192.56-192.56c0-36.37 9.939-71.029 28.937-101.424-80.366-54.236-129.446-145.492-129.446-243.17 0-5.951 0.518-39.719 1.048-46.526 0.831-10.541 9.638-18.673 20.215-18.673h543.611c10.577 0 19.372 8.12 20.215 18.661 0.53 6.782 1.036 40.574 1.036 46.538 0 97.678-49.068 188.922-129.434 243.17z" />
<glyph unicode="&#xe60f;" glyph-name="bike" horiz-adv-x="1396" d="M1247.27 486.715c-50.587 50.587-113.047 76.914-184.541 76.914-26.844 0-52.395-4.389-76.139-13.42l-84.657 228.16h107.885v49.039h-140.665c-3.098 0-9.035-10.066-9.035-13.162v-32.777l29.681-77.947h-360.309l-14.969 38.973c0 3.098-3.098 3.098-5.937 6.195v0l-9.035 26.844c11.872 3.098 23.746 9.035 38.715 17.809 26.844 14.969 29.681 20.905 29.681 26.844 0 23.746-14.969 23.746-20.905 23.746-3.098 0-5.937 0-23.746-3.098-11.872-3.098-20.905-3.098-29.681-3.098-3.098 0-11.872 0-32.777 5.937-17.809 5.937-29.681 9.035-38.715 9.035-11.872 0-32.777-5.937-32.777-41.813 0-11.872 5.937-26.844 32.777-32.777 11.872-3.098 23.746-5.937 41.813-5.937l11.872-32.777c0-3.098-3.098-5.937 0-9.035l20.905-59.622-56.524-125.179c-29.681 11.872-62.461 17.809-92.399 17.809-71.493 0-133.955-26.844-184.541-77.431s-77.431-109.434-77.431-180.928c0-71.493 26.844-133.955 77.431-184.541s113.047-77.431 181.703-77.431c62.461 0 119.242 20.905 166.733 62.461 44.653 38.715 74.333 89.302 86.465 145.827l74.591-5.42c3.098 0 261.714 335.53 261.714 335.53l15.229-44.135c-41.813-20.905-77.431-50.587-104.273-92.399s-41.813-89.302-41.813-139.891c0-71.493 26.844-133.955 77.431-184.541s113.047-77.431 184.541-77.431 131.114 26.844 181.703 77.431c50.587 50.587 77.431 113.047 77.431 184.541s-26.844 133.955-77.431 181.703zM320.688 281.267c0-3.098 3.098-3.098 6.195-3.098l229.45-20.905c-11.872-47.749-35.618-86.465-71.493-119.242-38.715-32.777-86.465-50.587-139.891-50.587-59.622 0-110.207 20.905-151.763 62.461-41.813 41.813-62.461 92.399-62.461 151.763 0 59.622 20.905 110.207 62.461 151.763s92.399 62.461 151.763 62.461c23.746 0 50.33-5.937 77.173-14.969l-101.435-213.707c0 0 0-3.098 0-5.937zM560.723 305.014v-5.937l-176.54 17.809 76.399 170.087c68.396-41.813 100.142-101.435 100.142-181.961zM469.872 528.527l44.393 97.304 118.726-331.143-30.972 1.291v9.292c0 98.077-45.941 172.41-132.148 223.258zM920.772 633.833l-251.132-328.303-134.211 369.6h369.341l16.002-41.295zM967.23 495.749l62.461-166.733c11.872-35.618 24.52-50.587 36.392-50.587s18.583 5.937 18.583 17.809v3.098l-18.583 47.749c-14.969 38.715-33.553 92.659-60.138 164.152 20.905 5.937 38.973 11.616 59.879 11.616 59.622 0 110.207-20.905 151.763-62.461 41.813-41.813 62.461-92.399 62.461-151.763s-20.905-110.207-62.461-151.763-92.399-65.041-151.763-65.041-110.207 23.486-151.763 65.041-62.461 92.399-62.461 151.763c5.937 87.754 47.232 152.279 115.627 187.123z" />
<glyph unicode="&#xe610;" glyph-name="parking" d="M895.33 554.468c0-18.504-15.047-33.551-33.551-33.551h-206.33c-18.504 0-33.551 15.047-33.551 33.551v114.592c0 18.492 15.047 33.551 33.551 33.551h206.33c18.504 0 33.551-15.059 33.551-33.551v-114.592zM734.104 461.634h-248.218v153.889h95.473v-61.054c0-40.852 33.238-74.089 74.089-74.089h78.655v-18.745zM824.204 368.919v-67.97c0-28.214-20.613-48.694-49.007-48.694h-0.554v168.9c0.193-0.012 0.361-0.060 0.554-0.060 27.479 0 49.007-22.914 49.007-52.176v0zM717.672 252.256c-7.794 44.634-46.731 78.691-93.57 78.691-46.827 0-85.763-34.057-93.557-78.691h-133.638c-7.794 44.634-46.731 78.691-93.545 78.691-46.839 0-85.775-34.057-93.57-78.691h-23.865c-28.395 0-49.007 20.48-49.007 48.694v30.407h27.094c11.192 0 20.263 9.083 20.263 20.275s-9.071 20.275-20.263 20.275h-26.961c1.325 25.841 19.48 46.116 43.345 48.851 1.819-0.518 3.662-0.771 5.506-0.771 2.132 0 4.216 0.458 6.228 1.108h541.973v-168.84h-16.432zM624.103 181.347c-30.069 0-54.525 24.456-54.525 54.525s24.456 54.537 54.525 54.537c30.069 0 54.537-24.468 54.537-54.537s-24.468-54.525-54.537-54.525v0zM303.362 181.347c-28.6 0-52.079 22.118-54.32 50.14 0 0.169 0.048 0.325 0.048 0.494 0 0.506-0.108 0.988-0.157 1.482-0.024 0.807-0.12 1.602-0.12 2.409 0 30.069 24.468 54.537 54.549 54.537 30.057 0 54.525-24.468 54.525-54.537s-24.468-54.525-54.525-54.525v0zM282.316 554.324c0.277 0.434 0.53 0.891 0.771 1.337 11.89 22.359 37.743 59.862 77.222 59.862 1.229 0 2.421 0.145 3.59 0.361 1.169-0.217 2.361-0.361 3.59-0.361h77.86v-153.889h-221.859l58.826 92.69zM861.779 743.149h-206.33c-40.852 0-74.089-33.238-74.089-74.089v-12.999h-213.871c-1.229 0-2.421-0.145-3.59-0.361-1.169 0.217-2.361 0.361-3.59 0.361-44.767 0-84.739-28.636-112.64-80.655l-72.668-114.531c-44.237-5.614-78.619-44.67-78.619-91.955v-67.97c0-50.875 38.49-89.245 89.546-89.245h25.576c10.734-40.731 47.791-70.909 91.859-70.909 44.056 0 81.101 30.178 91.835 70.909h137.059c10.734-40.731 47.791-70.909 91.847-70.909 44.068 0 81.113 30.178 91.847 70.909h18.155v-44.273c0-11.192 9.071-20.275 20.275-20.275 11.192 0 20.263 9.083 20.263 20.275v44.273h0.554c51.055 0 89.546 38.37 89.546 89.245v67.97c0 51.128-40.165 92.714-89.546 92.714-0.193 0-0.361-0.048-0.554-0.048v18.793h87.136c40.852 0 74.089 33.238 74.089 74.089v114.592c0 40.852-33.238 74.089-74.089 74.089v0zM740.901 643.954h23.504c6.578 0 11.915-5.349 11.915-11.915 0-6.578-5.337-11.927-11.915-11.927h-23.504v23.841zM764.405 684.492h-43.779c-11.192 0-20.263-9.071-20.263-20.263v-104.93c0-11.192 9.071-20.263 20.263-20.263s20.275 9.071 20.275 20.263v20.275h23.504c28.925 0 52.465 23.528 52.465 52.465 0 28.925-23.54 52.453-52.465 52.453v0z" />
<glyph unicode="&#xe611;" glyph-name="check" d="M436.697 225.057c-11.3 0-22.576 4.301-31.202 12.926-17.227 17.227-17.227 45.176 0 62.404l357.569 357.569c17.215 17.215 45.14 17.215 62.368 0 17.227-17.227 17.227-45.189 0-62.404l-357.557-357.569c-8.602-8.626-19.878-12.926-31.178-12.926zM436.697 225.057c-11.3 0-22.576 4.301-31.202 12.926l-199.825 199.825c-17.227 17.227-17.227 45.176 0 62.404s45.176 17.227 62.404 0l199.825-199.825c17.227-17.227 17.227-45.176 0-62.404-8.602-8.626-19.902-12.926-31.202-12.926z" />
<glyph unicode="&#xe612;" glyph-name="seat" d="M783.289 195.105l-15.288-8.999c-7.758-4.457-16.733-5.686-25.323-3.445-8.433 2.217-15.493 7.541-19.902 15.035l-74.933 140.698c-3.518 6.614-10.397 10.734-17.89 10.734h-195.138c-1.446 0.398-3.108 0.687-4.963 0.747-0.494 0.012-0.976 0-1.47-0.024-12.035-0.458-23.962 6.216-30.322 17.239l-160.286 276.588c-9.192 15.914-3.783 36.31 12.276 45.586l15.059 8.939c16.059 9.264 35.828 4.060 45.020-11.866 1.024-1.783 2.349-3.265 3.783-4.602 6.156-7.626 17.071-9.903 25.829-4.843 7.698 4.433 16.637 5.614 25.214 3.313 8.565-2.289 15.733-7.782 20.179-15.493l52.116-89.943h-34.683l-28.094 42.647c-6.168 9.349-18.745 11.939-28.094 5.783-9.349-6.168-11.939-18.745-5.771-28.094l26.997-40.996c0.217-11.023 9.18-19.89 20.239-19.89h189.741c16.962 0 30.298-12.686 30.587-28.961l-2.711-44.152c-0.41-1.602-0.687-3.241-0.687-4.963 0-0.867 0.145-1.687 0.253-2.518 0-0.096-0.012-0.181-0.012-0.277v-0.169c0.036-5.578 2.325-10.613 5.987-14.252v-0.012c0.012-0.012 0.024-0.024 0.024-0.024 0.012-0.012 0.012-0.024 0.024-0.024 0.012-0.012 0.012-0.024 0.024-0.024s0.012-0.012 0.024-0.012 0.024-0.024 0.024-0.024l0.024-0.024c3.65-3.566 8.638-5.758 14.143-5.758h12.216c3.723 0 7.168 1.084 10.168 2.843h24.419c9.77 0 19.528-5 26.106-13.372 0.253-0.313 0.506-0.626 0.771-0.928 1.181-1.313 2.939-4.325 3.759-5.758l92.509-174.538c0.12-0.205 0.229-0.422 0.349-0.638 9.18-15.89 3.723-36.286-12.3-45.526v0zM428.371 308.769c0.867-0.12 1.783-0.193 2.759-0.193h186.645l67.765-127.229h-257.169v127.422zM830.911 260.568l-92.509 174.526c-0.108 0.193-0.217 0.398-0.325 0.578-2.361 4.12-5 8.457-8.337 12.324-14.408 18.071-35.382 28.419-57.645 28.419h-25.070l1.662 27.058c0.024 0.41 0.036 0.819 0.036 1.241 0 39.285-31.25 70.054-71.138 70.054h-93.461l-63.886 110.243c-9.854 17.059-25.757 29.262-44.791 34.37-13.083 3.506-26.552 3.277-39.249-0.349-22.697 25.142-60.802 31.937-91.582 14.167l-15.059-8.951c-35.202-20.323-47.273-65.56-26.889-100.87l160.286-276.6c6.24-10.806 14.866-19.564 24.865-25.937v-159.768c0-11.192 9.071-20.275 20.275-20.275h326.885c2.072 0 4.024 0.41 5.915 0.988 3.433-0.494 6.879-0.783 10.312-0.783 12.89 0 25.648 3.397 37.201 10.071l15.3 8.987c35.129 20.287 47.273 65.295 27.202 100.509v0zM538.269 464.842h-86.775c-11.204 0-20.275-9.083-20.275-20.275s9.071-20.275 20.275-20.275h86.775c11.192 0 20.275 9.083 20.275 20.275s-9.083 20.275-20.275 20.275z" />
<glyph unicode="&#xe613;" glyph-name="hotel" d="M752.929 181.338v62.151h62.151v-62.151h-62.151zM559.61 545.545h197.126c30.877 0 58.344-42.502 58.344-76.017v-185.489h-255.47v261.506zM281.733 376.392h110.472v-92.353h-110.472v92.353zM197.15 181.338v521.264h44.032v-521.264h-44.032zM319.247 521.379h38.948c13.336 0 30.515-25.263 34.009-47.67v-15.276c-3.421-20.444-19.854-41.49-34.009-41.49h-38.948c-15.89 0-34.696 26.528-34.696 48.947 0 23.853 19.781 55.489 34.696 55.489v0zM519.072 545.545v-261.506h-86.317v171.863c0.398 3.349 0.675 6.698 0.675 9.987 0 3.325-0.241 6.795-0.675 10.36v69.295h86.317zM786.36 580.024c-3.674 3.735-8.782 6.060-14.444 6.060h-359.436c-11.192 0-20.275-9.071-20.275-20.263v-15.746c-9.927 7.337-21.371 11.854-34.009 11.854h-38.948c-14.143 0-26.805-5.662-37.515-14.601v175.55c0 11.204-9.083 20.275-20.275 20.275h-84.57c-11.204 0-20.275-9.071-20.275-20.275v-561.803c0-11.192 9.071-20.275 20.275-20.275h84.57c11.192 0 20.275 9.083 20.275 20.275v82.414h430.646v-82.414c0-11.192 9.083-20.275 20.275-20.275h102.701c11.192 0 20.275 9.083 20.275 20.275v308.453c0 43.863-28.612 93.509-69.271 110.496v0z" />
<glyph unicode="&#xe614;" glyph-name="car" horiz-adv-x="1030" d="M889.91 326.61c0-34.406-28.323-61.344-64.476-61.344h-7.578c-7.638 52.573-52.875 93.124-107.532 93.124s-99.894-40.55-107.532-93.124h-154.708c-7.638 52.573-52.875 93.124-107.532 93.124s-99.906-40.55-107.532-93.124h-31.431c-35.768 0-61.717 25.793-61.717 61.344v39.707h35.78c11.192 0 20.263 9.071 20.263 20.275 0 11.192-9.071 20.263-20.263 20.263h-35.78v0.193c0 34.551 24.022 62.042 55.706 65.15 4.301-1.337 8.83-1.181 12.939 0.313h313.681c3.048-1.831 6.578-2.952 10.397-2.952 3.807 0 7.337 1.12 10.385 2.952h282.455c23.588 0 44.683-13.685 55.91-33.491l5.59-13.902c0.193-0.482 0.458-0.916 0.675-1.385 1.458-5.349 2.301-10.927 2.301-16.685v-80.438zM710.325 181.347c-33.78 0-61.826 24.684-67.235 56.958 0.735 2.108 1.217 4.325 1.217 6.686 0 3.12-0.759 6.048-2.024 8.686 2.132 35.732 31.792 64.175 68.042 64.175 37.635 0 68.247-30.624 68.247-68.259s-30.612-68.247-68.247-68.247v0zM340.552 181.347c-35.888 0-65.331 27.853-67.994 63.078 0 0.193 0.060 0.373 0.060 0.566 0 0.59-0.133 1.144-0.181 1.723-0.036 0.964-0.145 1.903-0.145 2.879 0 37.635 30.624 68.259 68.259 68.259s68.259-30.624 68.259-68.259c0-37.635-30.624-68.247-68.259-68.247v0zM312.507 628.461c0.277 0.446 0.542 0.891 0.783 1.337 14.469 27.202 46.008 72.812 94.678 72.812h104.352v-189.548h-273.035l73.222 115.399zM803.557 632.907c0.12-0.373 0.265-0.759 0.41-1.132l49.224-122.591c-8.867 2.458-18.143 3.879-27.756 3.879h-272.577v189.548h162.346c38.322 0 74.656-28.66 88.353-69.704v0zM917.293 458.309l-75.487 188.030c-19.589 57.934-70.391 96.81-126.603 96.81h-307.236c-51.573 0-97.75-33.238-130.096-93.606l-86.968-137.071c-51.381-5.554-91.582-50.706-91.582-105.424v-10.071c-1.831-3.048-2.939-6.578-2.939-10.385 0-3.819 1.108-7.349 2.939-10.397v-49.586c0-58.091 43.972-101.894 102.267-101.894h33.141c11.3-48.020 54.405-83.92 105.821-83.92 51.429 0 94.521 35.9 105.809 83.92h158.154c11.288-48.020 54.392-83.92 105.809-83.92s94.521 35.9 105.809 83.92h9.3c58.886 0 105.014 44.767 105.014 101.894v80.438c0 18.589-4.795 36.057-13.155 51.26v0z" />
<glyph unicode="&#xe615;" glyph-name="world" horiz-adv-x="1027" d="M656.011 349.886c1.53 1.47 3.578 2.434 5.867 2.446h0.048c-2.313 0-4.385-0.952-5.915-2.446zM517.361 195.082c-55.513 0-106.616 18.733-147.854 49.923-0.446 0.47-1.036 0.747-1.542 1.157-5.349 4.108-10.493 8.433-15.48 12.963 0.241 4.494 3.795 8.096 8.325 8.096h-3.458c9.409 0 17.022 7.614 17.022 17.022s-7.614 17.022-17.022 17.022h3.482c-4.686 0-8.493 3.807-8.493 8.529 0 4.71 3.807 8.517 8.493 8.517h17.324c9.409 0 17.022 7.614 17.022 17.022s-7.614 17.022-17.022 17.022h-15.758c-4.686 0-8.517 3.807-8.517 8.517 0 4.698 3.831 8.505 8.517 8.505h44.285c9.397 0 17.047 7.614 17.047 17.022s-7.626 17.022-17.047 17.022h-42.875c-4.734 0-8.517 4.53-8.517 8.517 0 4.698 3.807 8.529 8.517 8.529h0.831c9.409 0 17.022 7.614 17.022 17.022 0 9.397-7.614 17.022-17.022 17.022h-52.646c-4.722 0-8.529 3.807-8.529 8.493 0 4.71 3.807 8.517 8.529 8.517h25.949c9.397 0 17.010 7.626 17.010 17.022 0 9.409-7.614 17.022-17.010 17.022h-2.807c-4.686 0-8.493 3.807-8.493 8.529 0 4.686 3.807 8.517 8.493 8.517h47.995c36.286 0 43.924 7.614 43.924 17.022s-7.614 17.022-17.022 17.022h-31.069c-4.686 0-8.517 3.807-8.517 8.529 0 3.855 2.638 6.987 6.156 8.035h39.538c9.397 0 17.022 7.626 17.022 17.022 0 9.409-7.65 16.998-17.022 16.998h-81.004c-0.048 0-0.084 0.060-0.133 0.060 45.092 49.947 110.026 81.571 182.356 81.571 23.913 0 46.971-3.602 68.849-10.011-0.277-1.217-0.735-2.361-0.735-3.662 0-9.397 7.614-17.010 17.010-17.010h29.31c4.686 0 8.493-3.819 8.493-8.529 0-4.686-3.807-8.493-8.493-8.493h-16.264c-9.409 0-17.022-7.626-17.022-17.022 0-9.409 7.614-17.022 17.022-17.022h8.975c3.53-1.036 6.12-4.192 6.12-8.047 0-4.686-3.807-8.517-8.493-8.517h-62.765c-4.686 0-8.517 3.807-8.517 8.517 0 3.855 2.614 6.987 6.12 8.047h0.108c9.397 0 17.022 7.614 17.022 17.022 0 9.397-7.626 17.022-17.022 17.022h-59.488c-9.409 0-17.022-7.626-17.022-17.022 0-9.409 7.614-17.022 17.022-17.022h36.563c3.506-1.036 6.12-4.192 6.12-8.047 0-4.686-3.807-8.517-8.517-8.517h2.446c-9.409 0-17.022-7.626-17.022-17.022 0-9.409 7.614-17.022 17.022-17.022h-1.867c4.698 0 8.505-3.807 8.505-8.505 0-4.686-3.807-8.517-8.505-8.517h-24.227c-9.818 0-17.432-7.614-17.432-17.022s7.614-17.022 17.022-17.022h9.481c4.686 0 8.505-3.807 8.505-8.529 0-4.686-3.843-8.517-8.505-8.517h1.614c-9.409 0-17.022-7.614-17.022-17.022s7.614-17.022 17.022-17.022c4.686 0 8.529-3.807 8.529-8.517 0-4.698-3.807-8.529-8.529-8.529h-28.118c-9.409 0-17.047-7.614-17.047-17.022s7.614-17.022 17.047-17.022h29.274c4.144-0.578 7.373-3.988 7.373-8.264 0-4.698-3.807-8.529-8.529-8.529l-8.373-0.096c-9.409 0-17.022-7.614-17.022-17.022s7.614-17.022 17.022-17.022h75.15c4.686 0 8.493-3.807 8.493-8.529 0-4.686-3.807-8.517-8.493-8.517-9.409 0-17.022-7.614-17.022-17.022s7.614-17.022 17.022-17.022h26.347c1.289 0 2.482-0.325 3.554-0.831 2.927-1.361 4.975-4.265 4.975-7.662 0-4.698-3.807-8.529-8.529-8.529h1.036c-9.409 0-17.022-7.614-17.022-17.022s7.614-17.022 17.022-17.022h35.78c9.409 0 17.047 7.614 17.047 17.022s-7.614 17.022-17.047 17.022h0.554c-4.71 0-8.517 3.807-8.517 8.529 0 4.686 3.807 8.493 8.517 8.493h12.589c9.409 0 17.022 7.614 17.022 17.022s-7.614 17.022-17.022 17.022c-3.132 0-5.746 1.759-7.24 4.289-0.759 1.253-1.289 2.65-1.289 4.229 0 2.373 0.988 4.494 2.554 6.036-1.542-1.53-2.494-3.662-2.494-5.999 0-1.566 0.53-2.952 1.277-4.241l12.734 12.734h7.77c9.409 0 17.022 7.614 17.022 17.022 0 2.313-0.482 4.482-1.313 6.505-2.542 6.18-8.59 10.517-15.709 10.517l-9.156 0.12c-4.71 0-8.517 3.807-8.517 8.529 0 4.289 3.229 7.686 7.361 8.264h25.793c9.409 0 17.047 7.614 17.047 17.022s-7.614 17.022-17.047 17.022h-47.502c-4.698 0-8.529 3.807-8.529 8.529 0 4.686 3.807 8.517 8.529 8.517h4.265c7.313 0 17.022 1.181 17.022 17.022 0 9.409-7.626 17.022-17.022 17.022h-102.641c-4.71 0-8.493 3.807-8.493 8.517 0 4.698 3.783 8.529 8.493 8.529h203.752c3.494 0 6.493-2.12 7.806-5.144 0.048-0.181 0.108-0.361 0.145-0.542 0.325-0.891 0.578-1.831 0.578-2.843 0-4.686-3.831-8.517-8.529-8.517h-29.142c-9.409 0-17.047-7.614-17.047-17.022s7.614-17.022 17.047-17.022h29.142c4.698 0 8.529-3.807 8.529-8.517 0-4.698-3.831-8.529-8.529-8.529h0.578c-9.373 0-17.010-7.614-17.010-17.022 0-0.952 0.398-1.807 0.554-2.723 1.361-8.047 8.035-14.3 16.456-14.3h11.144c-18.613-117.772-120.278-208.209-242.905-208.209zM277.697 463.008c0-3.674-2.626-6.228-5.891-7.409 0.265 4.831 0.482 9.674 1.024 14.42 2.711-1.422 4.867-3.723 4.867-7.011zM295.876 352.356h1.94c-3.229 0-6.084-1.144-8.662-2.711-2.614 6.469-5.060 13.011-7.132 19.733h13.854c4.686 0 8.529-3.807 8.529-8.505 0-4.71-3.819-8.517-8.529-8.517zM318.042 301.264h3.506c-1.928 0-3.71-0.506-5.433-1.096-4.12 5.855-7.939 11.927-11.541 18.143h13.445c4.686 0 8.517-3.807 8.517-8.517 0-4.722-3.807-8.529-8.493-8.529zM660.468 607.127h33.382c1.807 0 3.458 0.506 5.096 1.024 5.132-5.638 9.999-11.493 14.601-17.589h-50.742c-4.686 0-8.493 3.807-8.493 8.517 0 3.855 2.626 6.987 6.156 8.047zM517.361 743.151c-165.707 0-300.514-135.096-300.514-301.176s134.807-301.176 300.514-301.176c165.707 0 300.514 135.096 300.514 301.176s-134.807 301.176-300.514 301.176z" />
<glyph unicode="&#xe616;" glyph-name="location" d="M517.63 568.673c37.454 0 67.933-30.467 67.933-67.921 0-37.466-30.479-67.933-67.933-67.933s-67.933 30.467-67.933 67.933c0 37.454 30.479 67.921 67.933 67.921zM517.63 392.268c59.814 0 108.472 48.658 108.472 108.484 0 59.802-48.658 108.46-108.472 108.46s-108.472-48.658-108.472-108.46c0-59.826 48.658-108.484 108.472-108.484zM517.63 702.61c110.279 0 200.005-89.714 200.005-200.005 0-86.136-133.18-242.821-200.005-312.537-66.825 69.716-200.005 226.4-200.005 312.537 0 110.291 89.726 200.005 200.005 200.005zM525.267 142.289c0.072 0.036 0.145 0.084 0.229 0.12 1.132 0.482 2.241 1.048 3.289 1.735 0.048 0.036 0.084 0.072 0.12 0.096 1.072 0.723 2.096 1.542 3.048 2.482 9.228 9.228 226.232 227.304 226.232 355.882 0 132.638-107.918 240.544-240.556 240.544s-240.544-107.906-240.544-240.544c0-128.578 216.992-346.654 226.22-355.882 0.976-0.976 2.024-1.819 3.132-2.554 0.012 0 0.024-0.012 0.024-0.024 1.060-0.699 2.168-1.265 3.313-1.735 0.072-0.036 0.145-0.084 0.217-0.12 1.12-0.458 2.289-0.783 3.458-1.024 0.096-0.024 0.205-0.072 0.301-0.096 1.289-0.241 2.578-0.373 3.879-0.373s2.59 0.133 3.879 0.373c0.133 0.036 0.265 0.096 0.41 0.12 1.132 0.253 2.253 0.554 3.349 1z" />
<glyph unicode="&#xe617;" glyph-name="long-arrow-down" horiz-adv-x="618" d="M549.547 276.48c3.413-3.413 5.12-8.747 5.12-15.573s-1.707-12.16-5.12-15.573c-150.827-136.96-226.987-206.293-228.907-208-3.413-3.413-8.747-5.12-15.573-5.12s-12.16 1.707-15.573 5.12l-228.48 208c-10.453 10.453-10.453 20.907 0 31.36s20.907 10.453 31.36 0l192.213-174.080v740.48c0 13.867 7.040 20.907 20.907 20.907s20.907-7.040 20.907-20.907v-740.693l192.213 174.080c10.24 10.453 20.693 10.453 30.933 0z" />
<glyph unicode="&#xe618;" glyph-name="tarifas" d="M810.667 231.040l-515.627 515.627h515.627zM213.333 664.96l515.627-515.627h-515.627z" />
<glyph unicode="&#xe619;" glyph-name="menu" horiz-adv-x="1229" d="M931.503 769.884c17.504 0 32.279-6.365 44.327-19.095s18.186-27.734 18.186-45.236-6.138-32.507-18.186-45.236-26.823-19.095-44.327-19.095h-647.859c-17.504 0-32.279 6.138-44.327 19.095-12.049 12.73-18.186 27.734-18.186 45.236s6.138 32.507 18.186 45.236c12.049 12.73 26.823 19.095 44.327 19.095h647.859zM931.503 512.331c17.504 0 32.279-6.365 44.327-19.095s18.186-27.734 18.186-45.236-6.138-32.507-18.186-45.236c-12.049-12.73-26.823-19.095-44.327-19.095h-647.859c-17.504 0-32.279 6.365-44.327 19.095s-18.186 27.734-18.186 45.236 6.138 32.507 18.186 45.236c12.049 12.73 26.823 19.095 44.327 19.095h647.859zM931.503 254.78c17.504 0 32.279-6.365 44.327-19.095s18.186-27.734 18.186-45.236c0-17.504-6.138-32.507-18.186-45.236s-26.823-19.095-44.327-19.095h-647.859c-17.504 0-32.279 6.365-44.327 19.095s-18.186 27.734-18.186 45.236c0 17.504 6.138 32.507 18.186 45.236s26.823 19.095 44.327 19.095h647.859z" />
<glyph unicode="&#xe61a;" glyph-name="login" d="M770.665 193.482h-76.366c-2.446 56.778-30.744 109.363-76.258 142.697 9.867 18.179 14.987 38.406 14.95 59.525-0.108 68.981-56.26 125.024-125.229 125.024h-0.193c-33.455-0.048-64.885-13.131-88.498-36.816-23.612-23.697-36.587-55.163-36.539-88.606 0.036-21.118 5.228-41.333 15.143-59.476-45.249-33.358-73.355-85.787-75.788-142.348h-78.197v351.268l263.554 166.177 263.421-166.177v-351.268zM441.647 342.685c-12.119 15.143-18.54 33.358-18.565 52.682-0.036 22.624 8.734 43.899 24.709 59.922 15.962 16.023 37.225 24.865 59.838 24.901h0.133c46.634 0 84.606-37.9 84.679-84.546 0.036-19.323-6.325-37.563-18.396-52.742-3.686-4.638-5.168-10.662-4.048-16.48 1.132-5.807 4.747-10.842 9.903-13.77 43.249-24.54 71.005-69.512 73.861-118.772l-291.346-0.398c2.711 49.236 30.322 94.28 73.475 118.941 5.144 2.939 8.746 7.987 9.854 13.806s-0.386 11.83-4.096 16.456v0zM860.584 536.172l-342.462 215.907c-3.325 2.096-7.108 3.132-10.878 3.12-3.783 0.012-7.554-1.024-10.878-3.12l-342.341-215.907c-9.469-5.975-12.3-18.492-6.337-27.961 5.975-9.469 18.492-12.312 27.961-6.337l27.491 17.336v-346.004c0-11.192 9.083-20.263 20.275-20.263h118.206c0.313-0.024 0.602-0.096 0.916-0.096h0.036l56.971 0.096h391.397c11.192 0 20.263 9.071 20.263 20.263v346.172l27.768-17.504c3.349-2.108 7.084-3.12 10.794-3.12 6.722 0 13.3 3.349 17.155 9.457 5.975 9.469 3.144 21.986-6.337 27.961v0z" />
<glyph unicode="&#xe61b;" glyph-name="logout" d="M508.174 472.665c11.192 0 20.275 9.071 20.275 20.275v229.942c0 11.192-9.083 20.275-20.275 20.275s-20.275-9.083-20.275-20.275v-229.942c0-11.204 9.083-20.275 20.275-20.275zM626.829 672.921c-10.132 4.759-22.203 0.41-26.973-9.722-4.759-10.132-0.41-22.203 9.722-26.973 83.426-39.213 137.336-124.049 137.336-216.148 0-131.638-107.098-238.737-238.737-238.737s-238.737 107.098-238.737 238.737c0 92.1 53.899 176.935 137.336 216.148 10.132 4.759 14.481 16.842 9.722 26.973-4.771 10.132-16.842 14.469-26.973 9.722-97.581-45.863-160.635-145.107-160.635-252.844 0-153.998 125.289-279.275 279.287-279.275s279.275 125.277 279.275 279.275c0 107.737-63.042 206.981-160.623 252.844z" />
<glyph unicode="&#xe61c;" glyph-name="settings" d="M546.879 364.669c-0.277-0.108-0.554-0.241-0.831-0.361-7.505-3.506-15.372-5.289-23.371-5.289-1.193 0-2.385 0.048-3.879 0.133-0.193 0.012-0.386 0.024-0.578 0.024l-1.181 0.036c-0.193 0-0.386 0.012-0.578 0.012-34.165 0-64.56 19.962-77.402 50.79-17.565 42.574 2.578 91.413 44.887 108.881 10.12 4.168 20.757 6.289 31.636 6.289 34.093 0 64.404-20.094 77.246-51.188 17.565-42.562-3.048-91.606-45.947-109.327zM515.58 565.723c-16.203 0-32.045-3.144-47.092-9.349-62.994-25.998-93.003-98.593-66.885-161.888 19.155-45.947 64.090-75.692 114.543-75.812l0.602-0.012c2.265-0.12 4.096-0.181 5.927-0.181 13.818 0 27.311 2.988 40.105 8.891 63.271 26.407 93.557 99.015 67.524 162.093-19.119 46.333-64.151 76.258-114.724 76.258zM775.781 356.728c-0.084-0.181-0.157-0.361-0.229-0.542l-15.36-36.852c-1.879-3.59-5.746-6.156-9.264-6.156-1.108 0-2.12 0.217-3.59 0.879l-29.551 12.541c-8.77 3.723-18.974 0.831-24.48-6.963-15.818-22.395-33.358-40.020-53.646-53.874-7.975-5.445-10.999-15.758-7.228-24.648l11.987-28.25c0.241-0.566 0.518-1.12 0.807-1.675 0.771-1.446 0.928-3.241 0.482-5.469-0.096-0.458-0.169-0.916-0.229-1.373-0.229-1.687-1.048-4.204-5.132-6.24l-36.43-15.24c-0.566-0.229-1.12-0.482-1.662-0.771-1.626-0.855-3.976-0.771-5.313-0.494-0.494 0.108-1 0.193-1.506 0.265-1.675 0.229-4.168 1.060-6.289 5.277l-0.313 0.663-13.155 31.021c-3.674 8.674-12.866 13.637-22.106 12.059-24.54-4.241-49.393-4.253-74.86-0.048-9.216 1.554-18.324-3.47-21.974-12.095l-12.734-30.069c-2.47-4.662-8.3-7.288-12.3-5.457-0.193 0.084-0.373 0.157-0.566 0.241l-36.852 15.348c-2.108 1.108-3.795 2.735-4.891 4.71-1.446 2.602-1.662 5.313-0.386 8.132l12.541 29.576c3.723 8.782 0.819 18.974-6.963 24.468-22.383 15.818-40.008 33.358-53.862 53.634-5.445 7.975-15.77 10.987-24.648 7.228l-29.756-12.625c-0.181-0.072-0.373-0.157-0.554-0.241-0.663-0.301-1.915-0.614-3.205-0.614-3.831 0-7.469 2.626-8.855 6.385-0.096 0.265-0.205 0.53-0.313 0.783l-15.119 36.274c-0.096 0.205-0.181 0.41-0.277 0.614-0.831 1.831-0.795 4.433 0.108 6.614 1.012 2.446 3.084 4.409 5.674 5.373 0.289 0.108 0.566 0.217 0.855 0.337l29.238 12.421c8.674 3.686 13.661 12.842 12.059 22.106-4.385 25.371-4.385 50.284 0.012 76.137 1.578 9.264-3.421 18.396-12.071 22.058l-30.142 12.77c-2.795 1.458-4.819 3.771-5.746 6.53-0.663 2.012-0.602 4.072 0.193 5.819 0.072 0.181 0.157 0.361 0.229 0.542l15.348 36.864c1.891 3.578 5.746 6.156 9.276 6.156 1.096 0 2.096-0.217 3.578-0.891l29.563-12.529c8.77-3.723 18.974-0.819 24.468 6.963 15.818 22.395 33.358 40.008 53.646 53.862 7.975 5.445 10.999 15.758 7.228 24.648l-11.987 28.262c-0.241 0.566-0.506 1.12-0.795 1.662-0.783 1.446-0.94 3.253-0.494 5.493 0.096 0.446 0.169 0.904 0.229 1.361 0.349 2.674 2.144 4.734 5.132 6.24l37.888 15.83c0.193 0.084 0.398 0.181 0.602 0.265 0.614 0.289 1.867 0.59 3.144 0.59 3.807 0 7.445-2.614 8.843-6.373 0.108-0.277 0.217-0.566 0.337-0.843l12.421-29.25c3.686-8.674 12.818-13.649 22.13-12.047 25.419 4.397 50.405 4.337 76.125-0.024 9.228-1.566 18.384 3.433 22.046 12.083l12.806 30.214c2.446 4.674 8.349 7.288 12.288 5.493 0.193-0.096 0.398-0.181 0.59-0.265l36.828-15.324c2.084-1.084 3.783-2.711 4.915-4.747 1.434-2.59 1.65-5.301 0.373-8.108l-12.541-29.576c-3.723-8.782-0.819-18.962 6.963-24.468 22.383-15.806 39.996-33.346 53.862-53.634 5.457-7.975 15.782-10.999 24.66-7.228l30.262 12.854c0.687 0.313 1.964 0.626 3.253 0.626 3.819 0 7.457-2.626 8.855-6.397 0.096-0.253 0.193-0.518 0.301-0.771l14.493-34.768c0.253-0.578 0.518-1.144 0.807-1.699 0.759-1.422 0.916-3.253 0.47-5.445-0.096-0.458-0.169-0.916-0.229-1.385-0.349-2.674-2.144-4.734-5.265-6.289l-30.756-13.095c-8.662-3.674-13.661-12.83-12.059-22.106 4.385-25.347 4.373-50.248-0.012-76.125-1.566-9.264 3.421-18.396 12.071-22.058l30.166-12.782c2.060-1.036 3.807-2.711 4.939-4.747 1.434-2.59 1.638-5.277 0.602-7.602zM788.226 405.422c-0.482 0.253-0.976 0.482-1.47 0.687l-16.541 6.999c2.168 19.468 2.181 38.575 0.036 57.814l16.119 6.843c0.253 0.096 0.506 0.217 0.747 0.325l1.422 0.687c15.312 7.626 25.347 21.010 27.66 36.792 2.542 13.493-0.638 24.058-4.036 30.828l-14.047 33.696c-7.385 19.432-26.106 32.455-46.718 32.455-6.999 0-13.938-1.494-19.589-4.084l-15.035-6.373c-11.686 14.722-25.19 28.142-40.852 40.55l6.12 14.456c6.433 14.107 5.698 30.19-2.036 44.116-5.132 9.252-12.866 16.649-22.588 21.504-0.482 0.241-0.964 0.47-1.458 0.675l-37.298 15.529c-6.132 2.735-12.674 4.12-19.468 4.12-18.998 0-36.912-11.288-45.827-29.154-0.181-0.361-0.349-0.735-0.506-1.096l-6.987-16.504c-19.468 2.144-38.442 2.193-57.814 0.036l-6.18 14.553c-7.421 19.323-26.106 32.274-46.646 32.274-6.843 0-13.613-1.41-19.613-4.072l-37.141-15.493c-0.253-0.096-0.506-0.217-0.759-0.325l-1.747-0.831c-15.276-7.638-25.299-21.010-27.612-36.768-2.566-13.613 0.699-24.251 4.144-31.045l5.433-12.806c-14.734-11.674-28.142-25.19-40.562-40.852l-14.408 6.096c-6.277 2.879-12.987 4.337-19.938 4.337-18.986 0-36.9-11.288-45.827-29.154-0.217-0.422-0.41-0.843-0.59-1.277l-15.541-37.322c-4.855-10.975-5.409-23.371-1.554-34.961 4.361-13.119 13.71-23.817 26.612-30.262 0.386-0.193 0.771-0.373 1.157-0.542l16.444-6.963c-2.168-19.444-2.181-38.563-0.036-57.802l-14.541-6.18c-12.89-4.951-23.263-15.011-28.515-27.684-5.168-12.529-5.048-26.576 0.325-38.599l14.866-35.671c7.385-19.432 26.106-32.443 46.731-32.443 6.903 0 13.746 1.434 19.805 4.168l14.806 6.277c11.674-14.722 25.19-28.142 40.852-40.562l-6.12-14.444c-6.433-14.119-5.686-30.214 2.060-44.165 5.144-9.228 12.914-16.637 22.998-21.673 0.361-0.169 0.735-0.337 1.096-0.494l37.237-15.505c6.144-2.723 12.686-4.108 19.456-4.108 18.986 0 36.9 11.276 45.863 29.202 0.169 0.337 0.325 0.699 0.47 1.048l6.951 16.396c19.083-2.036 37.707-2.036 56.392 0l7.252-17.095c0.12-0.265 0.241-0.53 0.361-0.795l0.675-1.422c7.602-15.191 20.89-25.19 36.539-27.564 3.361-0.663 6.602-1 9.867-1 7.337 0 14.613 1.711 21.118 4.951l35.262 14.709c0.253 0.096 0.494 0.205 0.735 0.325l1.699 0.795c15.288 7.626 25.323 20.998 27.636 36.768 2.59 13.625-0.675 24.275-4.144 31.081l-5.421 12.782c14.734 11.686 28.142 25.202 40.562 40.864l14.444-6.132c6.289-2.855 12.987-4.313 19.914-4.313 18.986 0 36.9 11.3 45.827 29.166 0.205 0.41 0.398 0.843 0.578 1.265l15.541 37.31c6.204 13.999 5.385 29.889-2.241 43.622-5.144 9.276-12.866 16.661-22.408 21.432z" />
<glyph unicode="&#xe61d;" glyph-name="long-arrow-right" d="M683.52 693.547c3.413 3.413 8.747 5.12 15.573 5.12s12.16-1.707 15.573-5.12c136.96-150.827 206.293-226.987 208-228.907 3.413-3.413 5.12-8.747 5.12-15.573s-1.707-12.16-5.12-15.573l-208-228.48c-10.453-10.453-20.907-10.453-31.36 0s-10.453 20.907 0 31.36l174.080 192.213h-740.48c-13.867 0-20.907 7.040-20.907 20.907s7.040 20.907 20.907 20.907h740.693l-174.080 192.213c-10.453 10.24-10.453 20.693 0 30.933z" />
<glyph unicode="&#xe61e;" glyph-name="taxes" d="M744.805 210.484l-26.323 26.684c-0.663 0.928-1.349 1.831-2.181 2.662-1.169 1.169-2.47 2.12-3.831 2.939-7.879 5.698-18.914 5.096-26.070-1.964-2-1.976-3.494-4.265-4.506-6.71l-44.357-44.357-50.104 50.092c-3.963 3.963-9.144 5.939-14.336 5.939s-10.385-1.976-14.336-5.939l-50.104-50.092-50.104 50.092c-3.951 3.963-9.144 5.939-14.336 5.939-5.18 0-10.373-1.976-14.324-5.939l-50.104-50.092-50.104 50.092c-2.024 2.036-4.385 3.53-6.903 4.518-7.662 3.915-17.239 2.735-23.612-3.723l-29.732-30.142v492.122h322.777v-133.168c0-11.204 9.071-20.275 20.263-20.275h132.325v-338.679zM632.755 673.741l83.57-84.040h-83.57v84.040zM785.307 569.836c-0.024 1.181-0.12 2.361-0.349 3.53-0.012 0.060-0.036 0.12-0.048 0.193-0.229 1.096-0.566 2.156-0.976 3.205-0.12 0.337-0.277 0.651-0.422 0.976-0.361 0.795-0.771 1.566-1.229 2.313-0.181 0.301-0.361 0.602-0.554 0.891-0.687 0.976-1.422 1.915-2.277 2.783l-152.6 153.443c-0.867 0.879-1.819 1.626-2.795 2.325-0.277 0.181-0.566 0.349-0.843 0.53-0.783 0.482-1.59 0.916-2.421 1.289-0.289 0.133-0.578 0.277-0.879 0.398-2.241 0.879-4.626 1.361-7.048 1.41-0.12 0-0.253 0.036-0.386 0.036h-363.315c-11.192 0-20.275-9.083-20.275-20.275v-561.815c0-8.216 4.975-15.625 12.577-18.745 2.494-1.024 5.108-1.518 7.698-1.518 5.313 0 10.553 2.096 14.432 6.036l50.537 51.224 51.333-51.32c3.951-3.963 9.144-5.939 14.324-5.939 5.192 0 10.385 1.976 14.336 5.939l50.104 50.092 50.104-50.092c3.951-3.963 9.144-5.939 14.324-5.939 5.192 0 10.373 1.976 14.336 5.939l50.104 50.092 50.104-50.092c3.963-3.963 9.144-5.939 14.336-5.939 5.18 0 10.373 1.976 14.336 5.939l49.766 49.766 49.007-49.67c3.891-3.939 9.108-6.036 14.432-6.036 2.59 0 5.204 0.494 7.686 1.518 7.614 3.12 12.577 10.529 12.577 18.745v408.371c0 0.133-0.036 0.265-0.036 0.398v0zM502.66 458.944c0 8.385 6.819 15.191 15.203 15.191 8.373 0 15.191-6.807 15.191-15.191s-6.819-15.203-15.191-15.203c-8.385 0-15.203 6.819-15.203 15.203zM573.605 458.944c0 30.732-25.010 55.742-55.742 55.742-30.744 0-55.742-25.010-55.742-55.742 0-30.744 24.998-55.742 55.742-55.742 30.732 0 55.742 24.998 55.742 55.742zM643.554 320.614c-8.385 0-15.203 6.819-15.203 15.203 0 8.373 6.819 15.191 15.203 15.191s15.203-6.819 15.203-15.191c0-8.385-6.819-15.203-15.203-15.203zM643.554 391.56c-30.732 0-55.742-25.010-55.742-55.742 0-30.744 25.010-55.742 55.742-55.742s55.742 24.998 55.742 55.742c0 30.732-25.010 55.742-55.742 55.742zM666.031 510.468c-8.867 6.831-21.6 5.18-28.431-3.686l-147.866-191.946c-6.831-8.867-5.18-21.588 3.686-28.419 3.686-2.843 8.035-4.216 12.36-4.216 6.072 0 12.071 2.711 16.071 7.903l147.866 191.934c6.831 8.867 5.18 21.6-3.686 28.431zM395.988 499.967h-62.078c-11.192 0-20.263-9.071-20.263-20.275 0-11.192 9.071-20.263 20.263-20.263h62.078c11.192 0 20.275 9.071 20.275 20.263 0 11.204-9.083 20.275-20.275 20.275zM549.808 597.57c0 11.192-9.083 20.275-20.275 20.275h-195.62c-11.204 0-20.275-9.083-20.275-20.275s9.071-20.275 20.275-20.275h195.62c11.192 0 20.275 9.083 20.275 20.275zM395.988 424.676h-62.078c-11.192 0-20.263-9.083-20.263-20.275s9.071-20.263 20.263-20.263h62.078c11.192 0 20.275 9.071 20.275 20.263s-9.083 20.275-20.275 20.275zM395.988 349.382h-62.078c-11.192 0-20.263-9.083-20.263-20.275s9.071-20.263 20.263-20.263h62.078c11.192 0 20.275 9.071 20.275 20.263s-9.083 20.275-20.275 20.275z" />
<glyph unicode="&#xe61f;" glyph-name="lock" d="M745.226 209.341c0-15.432-12.565-27.997-27.997-27.997h-407.745c-15.432 0-27.997 12.565-27.997 27.997v233.629c0 15.432 12.565 27.997 27.997 27.997h407.745c15.432 0 27.997-12.565 27.997-27.997v-233.629zM405.186 594.437c0 59.645 48.526 108.171 108.171 108.171s108.171-48.526 108.171-108.171v-82.92h-216.341v82.92zM717.229 511.517h-55.163v82.92c0 82.004-66.705 148.721-148.709 148.721s-148.721-66.717-148.721-148.721v-82.92h-55.151c-37.792 0-68.548-30.756-68.548-68.548v-233.629c0-37.792 30.756-68.536 68.548-68.536h407.745c37.792 0 68.536 30.744 68.536 68.536v233.629c0 37.792-30.744 68.548-68.536 68.548v0zM533.941 330.771c-5.325-4.686-7.819-11.806-6.566-18.781l8.059-45.152h-44.165l8.072 45.152c1.241 6.975-1.253 14.095-6.566 18.781-6.782 5.963-10.674 14.505-10.674 23.456 0 17.227 14.023 31.25 31.25 31.25s31.25-14.023 31.25-31.25c0-8.951-3.891-17.492-10.662-23.456zM513.353 426.015c-39.587 0-71.788-32.202-71.788-71.788 0-16.553 5.746-32.479 16.059-45.189l-10.517-58.91c-1.060-5.903 0.554-11.975 4.409-16.577 3.855-4.59 9.541-7.252 15.541-7.252h92.594c5.999 0 11.698 2.662 15.553 7.252 3.843 4.602 5.469 10.674 4.409 16.577l-10.529 58.91c10.312 12.71 16.059 28.636 16.059 45.189 0 39.587-32.202 71.788-71.788 71.788z" />
<glyph unicode="&#xe620;" glyph-name="none" d="M800.768 246.272c4.096-4.096 6.144-9.216 6.144-15.36s-2.048-11.264-6.144-15.36l-58.368-57.344c-4.096-4.096-9.216-6.144-14.336-6.144-6.144 0-11.264 2.048-15.36 6.144l-200.704 201.728-201.728-201.728c-4.096-4.096-9.216-6.144-14.336-6.144-6.144 0-11.264 2.048-15.36 6.144l-58.368 57.344c-4.096 4.096-6.144 9.216-6.144 15.36s2.048 11.264 6.144 15.36l203.776 201.728-203.776 199.68c-10.24 10.24-10.24 20.48 0 30.72l57.344 58.368c6.144 4.096 11.264 6.144 15.36 6.144 6.144 0 11.264-2.048 15.36-6.144l201.728-199.68 201.728 199.68c6.144 4.096 11.264 6.144 15.36 6.144 6.144 0 11.264-2.048 15.36-6.144l57.344-58.368c10.24-10.24 10.24-20.48 0-29.696l-203.776-198.656 202.752-203.776z" />
<glyph unicode="&#xe621;" glyph-name="refresh" d="M518.026 181.343c-143.721 0-260.638 116.917-260.638 260.638 0 143.709 116.917 260.626 260.638 260.626s260.638-116.917 260.638-260.626c0-143.721-116.917-260.638-260.638-260.638zM518.026 743.158c-166.069 0-301.176-135.108-301.176-301.176s135.108-301.176 301.176-301.176c166.069 0 301.176 135.108 301.176 301.176s-135.108 301.176-301.176 301.176zM650.928 447.955c-11.192 0-20.275-9.083-20.275-20.275 0-64.572-52.537-117.122-117.122-117.122s-117.122 52.549-117.122 117.122c0 64.102 51.778 116.29 115.7 117.061l-30.033-30.045c-7.915-7.915-7.915-20.745 0-28.66 3.951-3.963 9.144-5.939 14.336-5.939 5.18 0 10.373 1.976 14.324 5.927l63.102 63.090c3.795 3.807 5.939 8.963 5.939 14.336s-2.144 10.529-5.939 14.336l-63.102 63.090c-7.915 7.915-20.745 7.915-28.66 0s-7.915-20.745 0-28.66l26.973-26.985c-84.872-2.385-153.19-72.114-153.19-157.551 0-86.932 70.728-157.672 157.672-157.672s157.672 70.74 157.672 157.672c0 11.192-9.083 20.275-20.275 20.275z" />
<glyph unicode="&#xe622;" glyph-name="bus" d="M764.375 264.023h-494.941v103.858h494.941v-103.858zM644.965 181.344v42.141h63.428v-42.141h-63.428zM325.416 181.344v42.141h63.428v-42.141h-63.428zM269.434 696.224c0 3.518 2.867 6.385 6.397 6.385h482.159c3.518 0 6.385-2.867 6.385-6.385v-77.198h-494.941v77.198zM269.434 408.431v170.056h494.941v-170.056h-494.941zM757.99 743.147h-482.159c-25.889 0-46.935-21.046-46.935-46.923v-452.475c0-11.192 9.071-20.263 20.275-20.263h35.707v-62.416c0-11.192 9.071-20.275 20.275-20.275h103.966c11.192 0 20.275 9.083 20.275 20.275v62.416h175.032v-62.416c0-11.192 9.071-20.275 20.263-20.275h103.978c11.192 0 20.263 9.083 20.263 20.275v62.416h35.72c11.192 0 20.263 9.071 20.263 20.263v452.475c0 25.877-21.046 46.923-46.923 46.923v0zM433.113 296.089h167.587c11.192 0 20.275 9.083 20.275 20.275s-9.083 20.263-20.275 20.263h-167.587c-11.192 0-20.275-9.071-20.275-20.263s9.083-20.275 20.275-20.275zM680.659 296.077c5.325 0 10.601 2.205 14.36 5.963 3.771 3.771 5.915 8.975 5.915 14.312 0 5.325-2.144 10.589-5.915 14.36-7.59 7.529-21.131 7.529-28.672 0-3.759-3.771-5.963-9.035-5.963-14.36 0-5.337 2.205-10.541 5.963-14.312 3.771-3.759 8.987-5.963 14.312-5.963zM341.892 299.493c1.096-0.699 2.253-1.337 3.47-1.855s2.494-0.867 3.831-1.157c1.277-0.229 2.602-0.41 3.939-0.41 5.325 0 10.589 2.205 14.36 5.963 3.759 3.771 5.903 8.975 5.903 14.312 0 5.325-2.144 10.589-5.903 14.36-4.747 4.686-11.758 6.891-18.299 5.506-1.337-0.229-2.614-0.638-3.831-1.108-1.217-0.518-2.373-1.157-3.47-1.903-1.096-0.699-2.144-1.566-3.072-2.494-3.759-3.771-5.963-8.975-5.963-14.36 0-5.337 2.205-10.541 5.963-14.312 0.928-0.928 1.976-1.795 3.072-2.542z" />
<glyph unicode="&#xe623;" glyph-name="fares" d="M751.524 326.049c-44.405-89.257-133.879-144.709-233.496-144.709-99.629 0-189.103 55.453-233.496 144.709-18.010 36.177-27.142 75.186-27.142 115.929 0 143.709 116.917 260.638 260.638 260.638 143.709 0 260.626-116.929 260.626-260.638 0-40.743-9.132-79.752-27.13-115.929zM518.028 743.154c-166.069 0-301.176-135.108-301.176-301.176 0-47.068 10.553-92.148 31.383-133.999 51.296-103.123 154.672-167.177 269.794-167.177 115.098 0 218.485 64.054 269.794 167.177 20.829 41.851 31.383 86.932 31.383 133.999 0 166.069-135.108 301.176-301.176 301.176zM532.39 588.336c28.829 0 56.019-10.999 78.643-31.816 8.24-7.578 21.058-7.048 28.648 1.193 7.578 8.24 7.035 21.058-1.193 28.636-29.804 27.431-67.488 42.526-106.098 42.526-66.343 0-123.784-43.466-150.745-106.279h-37.346c-11.204 0-20.275-9.083-20.275-20.275 0-11.204 9.071-20.275 20.275-20.275h24.889c-2.53-12.914-3.903-26.311-3.903-40.069 0-6.024 0.277-11.975 0.783-17.842h-21.769c-11.204 0-20.275-9.083-20.275-20.275s9.071-20.275 20.275-20.275h29.383c21.974-74.547 84.787-128.518 158.708-128.518 38.599 0 76.282 15.095 106.086 42.526 8.24 7.578 8.782 20.396 1.205 28.636-7.578 8.252-20.408 8.77-28.648 1.205-22.636-20.829-49.827-31.828-78.643-31.828-51.838 0-96.485 36.262-116.025 87.98h107.484c11.192 0 20.263 9.083 20.263 20.275s-9.071 20.275-20.263 20.275h-117.049c-0.614 5.855-0.976 11.794-0.976 17.842 0 13.89 1.723 27.323 4.867 40.069h113.158c11.192 0 20.263 9.071 20.263 20.275 0 11.192-9.071 20.275-20.263 20.275h-97.027c22.685 39.575 61.524 65.741 105.568 65.741z" />
<glyph unicode="&#xe624;" glyph-name="warning" d="M493.014 515.027v-154.311c0-11.192 9.083-20.263 20.275-20.263s20.263 9.071 20.263 20.263v154.311c0 11.192-9.071 20.275-20.263 20.275s-20.275-9.083-20.275-20.275zM513.287 288.186c-14.336 0-25.961-11.625-25.961-25.961s11.625-25.949 25.961-25.949c14.336 0 25.961 11.613 25.961 25.949s-11.625 25.961-25.961 25.961zM224.040 181.343l289.25 501.001 289.238-501.001h-578.488zM855.198 171.212l-324.355 561.803c-3.626 6.277-10.312 10.144-17.553 10.144s-13.938-3.867-17.565-10.144l-324.355-561.803c-3.614-6.277-3.614-13.999 0-20.275 3.626-6.277 10.312-10.132 17.565-10.132h648.71c7.24 0 13.938 3.855 17.553 10.132 3.626 6.277 3.626 13.999 0 20.275v0z" />
<glyph unicode="&#xe625;" glyph-name="info" d="M518.025 181.343c-143.721 0-260.638 116.917-260.638 260.638 0 143.709 116.917 260.626 260.638 260.626s260.638-116.917 260.638-260.626c0-143.721-116.917-260.638-260.638-260.638zM518.025 743.158c-166.069 0-301.176-135.108-301.176-301.176s135.108-301.176 301.176-301.176c166.069 0 301.176 135.108 301.176 301.176s-135.108 301.176-301.176 301.176zM518.025 514.050c-11.192 0-20.275-9.071-20.275-20.275v-213.197c0-11.192 9.083-20.263 20.275-20.263s20.275 9.071 20.275 20.263v213.197c0 11.204-9.083 20.275-20.275 20.275zM518.024 616.661c-14.637 0-26.504-11.866-26.504-26.504 0-14.625 11.866-26.491 26.504-26.491s26.504 11.866 26.504 26.491c0 14.637-11.866 26.504-26.504 26.504z" />
<glyph unicode="&#xe626;" glyph-name="flights-return" d="M278.353 494.567h178.863c6.686 0 12.939 3.301 16.709 8.806l144.806 211.281h26.082l-71.716-192.741c-2.313-6.228-1.434-13.192 2.349-18.637 3.795-5.457 10.011-8.71 16.649-8.71h133.674c6.252 0 12.143 2.879 15.986 7.806l39.069 50.116h16.709l-21.649-93.75c-0.699-3.012-0.699-6.12-0.012-9.12l21.673-94.051h-16.721l-39.069 50.104c-3.843 4.927-9.734 7.806-15.986 7.806h-133.674c-6.638 0-12.854-3.253-16.649-8.698-3.783-5.457-4.662-12.421-2.349-18.637l71.716-192.753h-26.082l-144.806 211.281c-3.771 5.518-10.023 8.806-16.709 8.806h-180.067c-34.828 0-50.429 20.227-50.429 40.261 0 20.323 15.962 40.827 51.634 40.827zM277.149 372.94h169.382l144.794-211.281c3.783-5.518 10.035-8.806 16.721-8.806h65.934c6.65 0 12.866 3.253 16.649 8.698 3.795 5.457 4.674 12.408 2.349 18.637l-71.704 192.753h94.606l39.069-50.116c3.831-4.927 9.734-7.806 15.986-7.806h52.091c6.168 0 12.011 2.819 15.866 7.65 3.843 4.831 5.277 11.156 3.891 17.179l-26.347 114.315 26.335 114.025c1.397 6.036-0.036 12.348-3.879 17.191-3.855 4.831-9.686 7.65-15.866 7.65h-52.091c-6.252 0-12.155-2.879-15.986-7.806l-39.069-50.116h-94.606l71.704 192.753c2.325 6.228 1.446 13.179-2.349 18.637-3.783 5.457-9.999 8.71-16.649 8.71h-65.934c-6.686 0-12.939-3.301-16.721-8.818l-144.794-211.281h-168.177c-60.512 0-92.172-40.924-92.172-81.366 0-40.153 31.25-80.8 90.967-80.8z" />
<glyph unicode="&#xe627;" glyph-name="email" d="M665.341 202.482l-184.79 145.131 71.391 81.209c19.215-54.115 59.91-94.774 113.399-113.013v-113.327zM150.811 181.159l171.466 134.662 30.768-29.973c0.193-0.181 0.41-0.301 0.59-0.47 0.506-0.458 1.048-0.867 1.602-1.277 0.566-0.422 1.132-0.819 1.735-1.169 0.229-0.133 0.422-0.313 0.651-0.434 0.554-0.289 1.144-0.494 1.699-0.771 0.157-0.072 0.301-0.157 0.458-0.217 9.059-4.421 19.070-6.843 29.214-6.843 11.421 0 22.552 3.048 32.467 8.59 0.096 0.048 0.181 0.108 0.277 0.145 0.723 0.41 1.482 0.711 2.181 1.144 0.229 0.145 0.41 0.337 0.626 0.482 0.53 0.361 1.036 0.759 1.53 1.169 0.638 0.518 1.241 1.060 1.807 1.65 0.193 0.205 0.422 0.349 0.614 0.554l25.371 28.865 173.297-136.108h-476.353zM112.634 520.055l180.477-175.827-180.477-141.746v317.573zM541.027 477.516l-140.457-159.756c-6.782-3.301-14.89-3.518-21.829-0.614l-236.652 230.545h401.456c-2.518-14.878-3.843-30.166-3.843-45.719 0-8.337 0.482-16.48 1.325-24.456v0zM682.556 493.985c0 57.633 42.779 106.315 93.413 106.315 8.867 0 17.444-1.012 25.54-3.012l-12.168-65.524c-8.132-45.827-44.020-80.065-70.692-80.065-22.588 0-36.093 15.806-36.093 42.285v0zM769.199 743.154c-65.693 0-125.048-25.648-167.141-72.21-21.637-23.925-37.972-52.369-48.514-83.558-1.566 0.398-3.18 0.663-4.867 0.663h-456.222c-0.036 0-0.084-0.012-0.12-0.012-1.084-0.012-2.156-0.145-3.229-0.325-0.241-0.048-0.506-0.036-0.747-0.084-1.277-0.265-2.53-0.651-3.747-1.169-1.217-0.506-2.361-1.132-3.445-1.867-0.229-0.157-0.434-0.373-0.663-0.542-0.843-0.626-1.662-1.277-2.397-2.024-0.036-0.024-0.072-0.048-0.096-0.072-0.301-0.313-0.506-0.663-0.783-0.988-0.566-0.651-1.144-1.301-1.614-2.024-0.337-0.518-0.59-1.072-0.879-1.614-0.325-0.614-0.687-1.217-0.952-1.867-0.253-0.638-0.41-1.289-0.602-1.94-0.181-0.614-0.386-1.193-0.518-1.831-0.157-0.819-0.193-1.662-0.241-2.506-0.036-0.434-0.133-0.855-0.133-1.313v-406.889c0-0.060 0.012-0.108 0.012-0.169 0.012-1.217 0.133-2.421 0.361-3.638 0.072-0.373 0.193-0.735 0.289-1.096 0.145-0.566 0.253-1.132 0.446-1.687 0.072-0.241 0.205-0.446 0.289-0.687 0.169-0.434 0.361-0.855 0.554-1.265 0.337-0.711 0.711-1.385 1.108-2.048 0.229-0.349 0.434-0.711 0.675-1.048 0.542-0.771 1.144-1.494 1.795-2.181 0.169-0.169 0.301-0.361 0.47-0.53 0.831-0.819 1.747-1.566 2.711-2.229 0.277-0.193 0.566-0.349 0.855-0.518 0.723-0.458 1.458-0.867 2.229-1.217 0.398-0.181 0.795-0.337 1.205-0.494 0.759-0.289 1.53-0.53 2.337-0.723 0.386-0.096 0.759-0.205 1.157-0.277 1.205-0.229 2.421-0.373 3.674-0.373h593.065c1.253 0 2.47 0.145 3.674 0.373 0.398 0.072 0.771 0.181 1.157 0.277 0.807 0.193 1.578 0.434 2.349 0.723 0.398 0.157 0.795 0.313 1.181 0.494 0.783 0.349 1.53 0.771 2.253 1.217 0.277 0.181 0.578 0.325 0.843 0.506 0.964 0.675 1.879 1.422 2.711 2.241 0.169 0.169 0.301 0.349 0.458 0.518 0.651 0.687 1.253 1.41 1.807 2.193 0.241 0.337 0.446 0.687 0.675 1.048 0.398 0.651 0.771 1.337 1.108 2.048 0.193 0.422 0.386 0.831 0.554 1.265 0.084 0.229 0.217 0.446 0.301 0.687 0.193 0.554 0.289 1.12 0.434 1.699 0.096 0.361 0.217 0.711 0.289 1.084 0.229 1.217 0.349 2.434 0.361 3.638 0 0.060 0.024 0.108 0.024 0.169v145.745c8.24-0.976 16.661-1.542 25.299-1.542 42.502 0 75.68 7.084 107.448 22.938 7.626 2.638 12.698 9.674 12.698 17.781 0 10.421-8.469 18.878-18.878 18.878-3.988 0-7.891-1.301-11.131-3.686-23.347-11.264-52.152-17.215-83.366-17.215-91.991 0-153.793 65.030-153.793 161.804 0 115.905 75.812 200.029 180.284 200.029 87.799 0 144.541-58.428 144.541-148.853 0-52.043-23.444-108.219-61.247-108.219h-0.59c-5.337 0.157-9.18 1.915-12.059 5.542-4.951 6.204-9.324 21.299-2.060 58.079l21.649 115.158-6.409 2.711c-18.167 7.722-41.153 11.975-64.729 11.975-83.052 0-150.6-67.548-150.6-150.576 0-48.417 29.238-82.233 71.126-82.233 35.358 0 63.247 15.517 84.992 47.333 1.229-13.312 5.891-24.48 13.722-32.696 8.987-9.433 21.853-14.637 36.226-14.637 30.744 0 59.199 14.336 80.113 40.382 22.335 27.781 34.129 66.102 34.129 110.845 0 107.532-75.607 182.633-183.862 182.633v0z" />
<glyph unicode="&#xe628;" glyph-name="link" d="M782.385 679.908l-26.491 26.491c-48.995 48.995-128.735 49.007-177.742 0l-47.224-47.224c-0.060-0.060-0.133-0.133-0.205-0.205l-19.155-19.155c-28.696-28.696-41.803-69.752-35.069-109.809 1.855-11.047 12.24-18.468 23.359-16.637 11.035 1.867 18.48 12.312 16.625 23.359-4.566 27.154 4.313 54.971 23.757 74.415l47.212 47.224c0.084 0.084 0.181 0.169 0.265 0.253l19.107 19.107c33.19 33.202 87.197 33.202 120.398 0l26.491-26.491c33.202-33.19 33.202-87.197 0-120.398l-45.345-45.357c-0.651-0.494-1.265-1.036-1.855-1.626l-15.926-15.938c-19.444-19.444-47.261-28.299-74.415-23.757-11.107 1.855-21.504-5.59-23.359-16.625s5.59-21.504 16.637-23.359c6.927-1.157 13.878-1.735 20.805-1.735 33.081 0 65.271 13.071 89.004 36.804l14.071 14.071c0.638 0.506 1.253 1.048 1.831 1.638l47.224 47.212c49.007 49.007 49.007 128.747 0 177.742zM532.474 367.191c-11.047-1.855-18.492-12.312-16.625-23.347 4.554-27.166-4.325-54.983-23.757-74.427l-15.938-15.938c-0.59-0.578-1.12-1.181-1.626-1.819l-45.369-45.369c-16.071-16.083-37.454-24.949-60.199-24.949-22.733 0-44.116 8.867-60.199 24.949l-26.491 26.491c-33.19 33.19-33.19 87.209 0 120.398l66.596 66.584c19.432 19.444 47.261 28.311 74.415 23.757 11.047-1.891 21.504 5.59 23.347 16.637 1.867 11.035-5.59 21.492-16.625 23.347-40.069 6.734-81.125-6.373-109.809-35.069l-19.119-19.107c-0.084-0.084-0.169-0.169-0.253-0.253l-27.853-27.865c-0.036-0.024-0.060-0.060-0.096-0.084l-19.275-19.275c-48.995-49.007-48.995-128.735 0-177.742l26.491-26.491c23.745-23.745 55.308-36.816 88.871-36.816 33.575 0 65.138 13.071 88.871 36.816l47.224 47.224c0.578 0.578 1.12 1.181 1.614 1.819l14.095 14.095c28.696 28.696 41.803 69.74 35.057 109.809-1.855 11.035-12.288 18.504-23.347 16.625zM356.43 282.613c3.963-3.963 9.144-5.939 14.336-5.939s10.373 1.976 14.336 5.939l287.395 287.395c7.915 7.915 7.915 20.745 0 28.672-7.927 7.915-20.757 7.915-28.672 0l-287.395-287.395c-7.915-7.915-7.915-20.757 0-28.672z" />
<glyph unicode="&#xe629;" glyph-name="adults" d="M684.507 340.339c0-28.278-11.312-42.42-32.522-42.42s-32.522 14.141-32.522 42.42v288.451h-15.553v-651.845c0-28.278-12.725-42.42-39.591-42.42s-39.591 14.141-39.591 42.42v367.635h-21.21v-367.635c0-28.278-12.725-42.42-39.591-42.42s-39.591 14.141-39.591 42.42v651.845h-15.553v-288.451c0-28.278-11.312-42.42-32.522-42.42s-32.522 14.141-32.522 42.42v330.87c0 53.731 29.694 80.596 90.494 80.596h166.848c59.387 0 89.082-26.866 89.082-80.596v-330.87zM582.7 853.614c0-24.037-7.069-45.248-21.21-65.043-14.141-18.382-31.108-28.278-49.49-28.278-19.795 0-36.763 9.899-49.49 28.278-14.141 18.382-21.21 41.007-21.21 65.043s7.069 43.833 21.21 60.801c14.141 16.967 31.108 25.452 50.903 25.452s36.763-8.484 49.49-25.452c12.725-18.382 19.795-38.177 19.795-60.801z" />
<glyph unicode="&#xe62a;" glyph-name="children" d="M346.093 359.013l75.413 149.316v-316.733h60.331l15.084 60.331h30.163l15.084-60.331h60.331v316.733l75.413-149.316 30.163-10.559 15.084 9.050 15.084 15.084-105.578 211.153-122.167 84.463-119.152-84.463-105.578-211.153c0 0 13.573-30.163 15.084-30.163 27.149-10.559 45.248 16.59 45.248 16.59zM542.163 176.516v-75.413l21.115-30.163h24.132l15.084 30.163v75.413zM421.506 176.516v-75.413l21.115-30.163h24.132l15.084 30.163v75.413zM593.444 720.993c0-28.657-9.050-54.297-25.639-78.429-16.59-22.624-37.706-34.69-60.331-34.69-24.132 0-43.741 12.066-60.331 34.69s-25.639 48.265-25.639 78.429c0 28.657 9.050 52.789 25.639 72.396s37.706 30.163 60.331 30.163c24.132 0 43.741-10.559 60.331-30.163 18.098-19.607 25.639-43.741 25.639-72.396z" />
<glyph unicode="&#xe62b;" glyph-name="babies" d="M422.765 465.163c-10.297-10.297-18.876-18.876-27.457-27.457-13.728-13.728-25.741-25.741-39.47-39.47-6.863-6.863-15.443-13.728-27.457-12.014-10.297 0-18.876 5.149-24.025 15.443s-3.434 20.592 3.434 29.171c5.149 6.863 12.014 13.728 18.876 18.876 30.89 30.89 63.493 63.493 94.384 94.384 12.014 12.014 25.741 18.876 42.901 17.163 15.443 0 75.506 0 90.95 0 17.163 0 32.605-5.149 44.617-18.876 36.038-36.038 72.074-72.074 106.397-108.113 1.716-1.716 3.434-3.434 5.149-6.863 10.297-12.014 8.579-27.457-1.716-37.754s-27.457-12.014-37.754-1.716c-6.863 5.149-13.728 12.014-20.592 18.876-15.443 15.443-32.605 32.605-48.048 48.048-1.716 1.716-3.434 3.434-5.149 5.149 0-22.308 0-42.901 0-63.493-60.062 0-118.406 0-176.752 0 1.716 25.741 1.716 46.333 1.716 68.643zM427.914 660.788c0 46.333 37.754 84.086 84.086 84.086s82.37-37.754 82.37-84.086c0-46.333-37.754-84.086-84.086-84.086-44.617 0-82.37 37.754-82.37 84.086zM422.765 367.344c1.716 0 1.716-1.716 1.716-1.716 20.592-20.592 42.901-42.901 63.493-63.493-17.163-15.443-32.605-32.605-49.767-48.048 8.579-8.579 15.443-15.443 22.308-22.308 10.297-10.297 18.876-18.876 29.171-29.171 12.014-12.014 13.728-29.171 3.434-39.47-10.297-13.728-29.171-15.443-42.901-3.434s-24.025 25.741-37.754 37.754c-15.443 15.443-29.171 30.89-44.617 46.333-13.728 13.728-20.592 30.89-15.443 51.483 1.716 6.863 5.149 13.728 10.297 18.876 17.163 18.876 36.038 36.038 53.197 54.915 5.149-1.716 6.863-1.716 6.863-1.716zM582.359 252.37c-17.163 17.163-32.605 32.605-49.767 49.767 22.308 22.308 44.617 44.617 66.925 66.925 0 0 0 0 0 0 18.876-18.876 37.754-37.754 56.629-56.629 15.443-17.163 15.443-42.901 0-61.778-10.297-12.014-20.592-22.308-30.89-32.605-17.163-17.163-34.319-34.319-49.767-53.197-8.579-10.297-20.592-15.443-34.319-10.297-18.876 6.863-27.457 30.89-13.728 46.333 12.014 13.728 24.025 25.741 37.754 37.754 6.863 3.434 12.014 8.579 17.163 13.728z" />
<glyph unicode="&#xe62c;" glyph-name="share" d="M546.008 550.518c8.481 0 15.372-6.903 15.372-15.384 0-8.469-6.891-15.372-15.372-15.372s-15.384 6.903-15.384 15.372c0 8.481 6.903 15.384 15.384 15.384zM561.38 346.971c0-8.481-6.891-15.384-15.372-15.384s-15.384 6.903-15.384 15.384c0 8.469 6.903 15.372 15.384 15.372s15.372-6.903 15.372-15.372zM418.923 440.842c0 8.481 6.903 15.384 15.384 15.384s15.372-6.903 15.372-15.384c0-8.469-6.891-15.372-15.372-15.372s-15.384 6.903-15.384 15.372zM490.085 535.134c0-5.156 0.759-10.144 2.072-14.89l-30.6-30.612c-8.072 4.53-17.36 7.132-27.25 7.132-30.84 0-55.922-25.082-55.922-55.922 0-30.828 25.082-55.922 55.922-55.922 9.891 0 19.179 2.614 27.25 7.144l30.515-30.527c-1.253-4.65-1.988-9.529-1.988-14.565 0-30.84 25.082-55.922 55.922-55.922 30.828 0 55.91 25.082 55.91 55.922 0 30.828-25.082 55.922-55.91 55.922-10.818 0-20.902-3.144-29.467-8.493l-29.106 29.106c1.795 5.457 2.795 11.288 2.795 17.336 0 6.060-1 11.878-2.783 17.348l29.347 29.359c8.517-5.253 18.504-8.325 29.214-8.325 30.828 0 55.91 25.082 55.91 55.91 0 30.84-25.082 55.922-55.91 55.922-30.84 0-55.922-25.082-55.922-55.922zM518.027 189.742l-252.241 252.229 252.241 252.241 252.229-252.241-252.229-252.229zM813.264 456.308l-280.901 280.913c-7.927 7.915-20.757 7.915-28.672 0l-280.913-280.913c-3.795-3.795-5.927-8.951-5.927-14.336 0-5.373 2.132-10.529 5.927-14.324l280.913-280.913c3.963-3.951 9.144-5.939 14.336-5.939s10.373 1.988 14.336 5.939l280.901 280.913c7.915 7.915 7.915 20.745 0 28.66v0z" />
<glyph unicode="&#xe62d;" glyph-name="add" d="M668.958 423.899h-315.075c-13.595 0-24.611 11.020-24.611 24.611s11.020 24.611 24.611 24.611h315.075c13.595 0 24.611-11.020 24.611-24.611s-11.020-24.611-24.611-24.611zM511.932 82.825c-201.651 0.040-365.108 163.517-365.108 365.176 0 201.683 163.493 365.176 365.176 365.176s365.176-163.493 365.176-365.176c0-100.858-40.886-192.167-106.992-258.252-65.727-66.051-156.699-106.926-257.218-106.926-0.365 0-0.729 0-1.094 0.001zM511.932 763.951c-174.49-0.004-315.943-141.459-315.943-315.95 0-174.493 141.457-315.95 315.95-315.95s315.95 141.457 315.95 315.95c0 87.212-35.335 166.174-92.474 223.345-56.871 57.202-135.616 92.61-222.629 92.61-0.3 0-0.601 0-0.905-0.001zM511.346 266.436c-13.554 0-24.539 10.985-24.539 24.539v315.075c0 13.595 11.020 24.611 24.611 24.611s24.611-11.020 24.611-24.611v-315.075c0 0 0 0 0 0 0-13.554-10.985-24.539-24.539-24.539-0.050 0-0.105 0-0.155 0z" />
<glyph unicode="&#xe630;" glyph-name="calendar-checked" d="M674.308 380.859c-88.739 0-160.925 72.198-160.925 160.937 0 88.727 72.186 160.925 160.925 160.925s160.925-72.198 160.925-160.925c0-88.739-72.186-160.937-160.925-160.937v0zM684.524 241.716c0-33.346-27.13-60.488-60.476-60.488h-378.567c-33.346 0-60.488 27.142-60.488 60.488v253.386h293.478c21.118-88.594 100.882-154.672 195.837-154.672 3.421 0 6.831 0.084 10.216 0.253v-98.967zM245.481 641.353h31.045v-23.54c0-11.168 9.059-20.215 20.227-20.215 11.156 0 20.215 9.047 20.215 20.215v23.54h182.417c-16.794-29.383-26.443-63.355-26.443-99.557 0-2.108 0.096-4.18 0.157-6.264h-288.105v45.345c0 33.346 27.142 60.476 60.488 60.476v0zM875.662 541.796c0 111.026-90.329 201.355-201.355 201.355-56.669 0-107.906-23.564-144.529-61.368h-212.811v26.744c0 11.156-9.059 20.215-20.215 20.215-11.168 0-20.227-9.059-20.227-20.215v-26.744h-31.045c-55.645 0-100.918-45.261-100.918-100.906v-339.161c0-55.645 45.273-100.918 100.918-100.918h378.567c55.645 0 100.906 45.273 100.906 100.918v105.171c86.594 22.516 150.709 101.364 150.709 194.909v0zM442.534 443.268c-7.529 3.132-16.203 1.434-22.010-4.301l-38.008-37.683c-7.927-7.867-7.987-20.673-0.12-28.588 7.855-7.939 20.649-7.999 28.588-0.133l3.554 3.53v-121.157c0-11.156 9.059-20.215 20.227-20.215 11.156 0 20.215 9.059 20.215 20.215v169.671c0 8.168-4.915 15.529-12.445 18.661zM744.76 602.701l-85.823-85.835-41.659 41.659c-7.903 7.891-20.697 7.891-28.588 0-7.903-7.891-7.903-20.697 0-28.588l55.947-55.947c3.951-3.951 9.12-5.927 14.288-5.927 1.301 0 2.59 0.12 3.867 0.373 3.819 0.735 7.469 2.59 10.433 5.554 0 0 0.012 0 0.012 0.012l100.111 100.111c7.891 7.891 7.891 20.697 0 28.588-7.903 7.891-20.685 7.903-28.588 0z" />
<glyph unicode="&#xe631;" glyph-name="changes" d="M732.866 384.24c-7.915 7.915-20.745 7.915-28.66 0-7.927-7.915-7.927-20.757 0-28.66l71.391-71.403h-55.224c-0.843-0.084-51.995-0.048-107.387 47.020-28.768 24.468-37.888 33.684-40.526 36.599-0.843 1.626-1.915 3.168-3.192 4.542l-74.053 79.414c26.648 21.347 81.848 65.777 117.772 96.304 54.67 46.466 106.966 47.032 107.64 47.032h50.284l-66.705-66.705c-7.927-7.915-7.927-20.757 0-28.672 3.951-3.951 9.144-5.939 14.324-5.939 5.192 0 10.373 1.988 14.336 5.939l104.424 104.412c3.795 3.807 5.939 8.963 5.939 14.336s-2.144 10.529-5.939 14.336l-104.424 104.424c-7.915 7.915-20.745 7.915-28.66 0-7.927-7.915-7.927-20.757 0-28.672l72.909-72.909-56.248-0.012c-2.614 0.12-67.211 0.193-134.132-56.669-36.671-31.166-93.822-77.113-119.254-97.473l-70.825 75.957c-5.313 8.276-18.697 20.793-49.742 47.176-66.849 56.814-131.337 56.742-134.132 56.681-11.156-0.133-20.034-9.24-19.962-20.384 0.060-11.156 9.18-20.155 20.323-20.155 0.53 0 52.826-0.554 107.508-47.032 28.78-24.456 37.9-33.684 40.538-36.599 0.843-1.626 1.915-3.156 3.192-4.53l71.355-76.523c-27.54-22.070-80.33-64.62-115.086-94.148-54.417-46.261-106.484-47.032-107.496-47.032h-0.133c-11.083 0-20.131-8.915-20.263-20.034-0.145-11.192 8.818-20.372 20.022-20.504h0.325c5.686 0 68.656 1.301 133.807 56.669 35.418 30.106 89.955 74.017 116.555 95.316l73.511-78.836c5.301-8.276 18.685-20.793 49.754-47.2 65.187-55.404 128.181-56.669 133.59-56.669h52.116l-68.235-68.235c-7.927-7.915-7.927-20.745 0-28.66 3.951-3.963 9.144-5.939 14.324-5.939 5.192 0 10.373 1.976 14.336 5.939l104.424 104.412c3.795 3.795 5.939 8.951 5.939 14.324s-2.144 10.541-5.939 14.336l-104.424 104.424z" />
<glyph unicode="&#xe632;" glyph-name="miles" d="M518.022 181.234c-143.77 0-260.747 116.965-260.747 260.747 0 143.77 116.977 260.734 260.747 260.734 143.782 0 260.747-116.965 260.747-260.734 0-143.782-116.965-260.747-260.747-260.747zM518.022 743.157c-166.069 0-301.176-135.108-301.176-301.176s135.108-301.176 301.176-301.176c166.069 0 301.176 135.108 301.176 301.176s-135.108 301.176-301.176 301.176zM617.413 562.623c-7.939 2.927-16.866 0.614-22.371-5.819l-77.017-89.943-77.017 89.943c-5.506 6.433-14.432 8.77-22.371 5.819-7.927-2.927-13.204-10.505-13.204-18.962v-195.753c0-11.156 9.047-20.215 20.215-20.215s20.215 9.059 20.215 20.215v141.059l55.995-65.379c4.204-4.915 10.24-7.228 16.227-6.975 5.951-0.217 11.927 2.096 16.107 6.975l55.995 65.379v-141.059c0-11.156 9.047-20.215 20.215-20.215s20.215 9.059 20.215 20.215v195.753c0 8.457-5.265 16.035-13.204 18.962z" />
<glyph unicode="&#xe633;" glyph-name="meal" d="M564.488 455.41c149.624 0 261.457-107.689 283.817-270.3h-567.633c22.359 162.611 134.192 270.3 283.817 270.3v0zM127.469 431.111v167.43h115.567v-167.43c0-32.081-25.925-58.175-57.778-58.175-31.864 0-57.79 26.094-57.79 58.175v0zM127.481 639.080v63.524h115.555v-63.524h-115.555zM914.864 181.34h-25.263c-21.215 181.947-141.854 305.345-306.333 314.079v51.501c0 11.192-9.083 20.275-20.275 20.275s-20.275-9.083-20.275-20.275v-51.718c-162.936-10.059-282.263-133.024-303.345-313.862h-33.852v153.178c44.526 9.421 78.053 49.14 78.053 96.593v291.768c0 11.204-9.071 20.275-20.263 20.275h-156.106c-11.204 0-20.275-9.071-20.275-20.275v-291.768c0-47.453 33.527-87.173 78.053-96.593v-153.178h-60.38c-11.204 0-20.275-9.071-20.275-20.263 0-11.204 9.071-20.275 20.275-20.275h810.261c11.192 0 20.263 9.071 20.263 20.275 0 11.192-9.071 20.263-20.263 20.263v0zM756.711 279.121c-32.913 83.522-104.484 111.905-144.215 121.386-10.878 2.602-21.829-4.108-24.431-15.011-2.602-10.878 4.132-21.817 15.011-24.419 32.069-7.65 89.751-30.407 115.905-96.822 3.144-7.975 10.794-12.842 18.878-12.842 2.47 0 4.975 0.458 7.421 1.41 10.409 4.108 15.529 15.878 11.433 26.299z" />
<glyph unicode="&#xe634;" glyph-name="search" d="M762.586 191.134c-6.313-6.313-14.697-9.794-23.636-9.794-8.927 0-17.312 3.482-23.636 9.794l-98.979 98.979c17.528 13.902 33.214 30.021 46.55 48.008l99.701-99.714c6.313-6.313 9.794-14.709 9.794-23.636s-3.482-17.324-9.794-23.636zM245.346 489.142c0 117.712 95.762 213.474 213.462 213.474s213.462-95.762 213.462-213.474c0-117.7-95.762-213.462-213.462-213.462s-213.462 95.762-213.462 213.462zM791.258 267.078l-106.424 106.412c17.842 34.72 27.973 74.017 27.973 115.652 0 140.059-113.941 254.012-254 254.012s-254.012-113.953-254.012-254.012c0-140.059 113.953-254 254.012-254 44.683 0 86.679 11.637 123.193 31.973l104.641-104.641c13.975-13.975 32.551-21.673 52.308-21.673 19.769 0 38.346 7.698 52.308 21.661 13.975 13.975 21.673 32.551 21.673 52.308s-7.698 38.334-21.673 52.308z" />
<glyph unicode="&#xe635;" glyph-name="star" d="M656.496 372.718c-0.084-0.084-0.133-0.193-0.205-0.289-0.518-0.59-0.94-1.253-1.373-1.903-0.313-0.47-0.663-0.904-0.928-1.385-0.349-0.602-0.59-1.265-0.867-1.915-0.241-0.554-0.53-1.108-0.723-1.687-0.193-0.614-0.289-1.253-0.434-1.879-0.145-0.663-0.325-1.301-0.41-1.964-0.060-0.578-0.036-1.169-0.060-1.747-0.024-0.759-0.060-1.518 0-2.265 0-0.133-0.024-0.253 0-0.373l15.914-163.876-150.926 65.789c-5.18 2.253-11.035 2.241-16.203 0l-150.926-65.789 15.914 163.876c0.554 5.614-1.265 11.192-5 15.408l-109.207 123.217 160.768 35.491c5.506 1.217 10.252 4.662 13.107 9.517l83.438 141.938 83.438-141.938c0.072-0.108 0.157-0.193 0.229-0.301 0.386-0.626 0.855-1.205 1.301-1.783 0.373-0.482 0.711-0.976 1.108-1.422 0.446-0.482 0.976-0.891 1.47-1.337 0.494-0.422 0.952-0.891 1.47-1.265 0.494-0.361 1.060-0.638 1.59-0.964 0.602-0.349 1.181-0.735 1.807-1.024 0.506-0.241 1.048-0.386 1.578-0.578 0.735-0.265 1.458-0.554 2.217-0.735 0.12-0.024 0.217-0.084 0.337-0.108l160.78-35.491-109.207-123.217zM823.023 514.56c-2.217 6.843-7.891 11.987-14.914 13.529l-185.814 41.020-96.437 164.057c-3.638 6.192-10.3 9.987-17.48 9.987s-13.83-3.795-17.48-9.987l-96.425-164.057-185.814-41.020c-7.023-1.542-12.698-6.686-14.914-13.529-2.217-6.831-0.663-14.336 4.108-19.709l126.217-142.408-18.396-189.404c-0.699-7.156 2.446-14.143 8.252-18.36 5.819-4.229 13.42-5.060 20.022-2.193l174.429 76.029 174.453-76.029c2.59-1.12 5.349-1.675 8.096-1.675 4.216 0 8.397 1.301 11.915 3.867 5.807 4.216 8.951 11.204 8.264 18.36l-18.408 189.404 126.217 142.408c4.771 5.373 6.325 12.878 4.108 19.709v0z" />
<glyph unicode="&#xe636;" glyph-name="baggage-checked" d="M754.111 181.343h-24.721v123.723h24.371c19.046 0 36.756 5.927 51.453 16.059v-88.293c0-28.395-22.926-51.489-51.104-51.489v0zM209.198 232.832v88.16c14.697-10.047 32.419-15.926 51.465-15.926h31.202v-123.723h-27.889c-29.178 0-54.778 24.058-54.778 51.489v0zM209.198 537.695c0 28.19 26.624 54.85 54.778 54.85h27.889v-246.929h-31.202c-28.371 0-51.465 23.456-51.465 52.284v139.794zM509.038 702.607c41.851 0 76.824-29.937 84.679-69.524h-169.346c7.855 39.587 42.815 69.524 84.667 69.524v0zM332.404 181.343v123.723h356.448v-123.723h-356.448zM332.404 345.617v246.929h356.448v-246.929h-356.448zM805.215 537.695v-139.083c-0.072-28.744-23.6-52.995-51.453-52.995h-24.371v246.929h24.721c27.214 0 51.104-25.636 51.104-54.85v0zM845.753 398.72v138.975c0 51.706-41.972 95.389-91.642 95.389h-119.338c-8.252 62.042-61.476 110.074-125.735 110.074s-117.471-48.032-125.735-110.074h-119.326c-50.778 0-95.316-44.574-95.316-95.389v-304.863c0-49.887 43.646-92.027 95.316-92.027h490.135c50.537 0 91.642 41.285 91.642 92.027v165.888zM509.035 460.454c-17.022 0-30.816-13.794-30.816-30.816s13.794-30.816 30.816-30.816c17.022 0 30.816 13.794 30.816 30.816s-13.794 30.816-30.816 30.816z" />
<glyph unicode="&#xe638;" glyph-name="fast-track" d="M847.113 490.637c10.168 0 18.444-8.276 18.444-18.444s-8.276-18.444-18.444-18.444c-10.168 0-18.444 8.276-18.444 18.444s8.276 18.444 18.444 18.444v0zM668.407 215.639l-19.613-19.625-61.585 134.385c19.263 2.108 38.551 4.987 57.742 8.71l23.456-123.47zM420.009 203.507l-52.007 83.546c-1.638 2.638-3.855 4.855-6.481 6.493l-83.787 52.212 12.794 12.794 26.455-3.12c47.465-13.975 96.208-23.022 144.637-26.901l-30.84-30.853c-4.409-4.397-6.542-10.577-5.795-16.757l7.782-64.657-12.758-12.758zM179.007 490.637c10.168 0 18.444-8.276 18.444-18.444s-8.276-18.444-18.444-18.444c-10.168 0-18.444 8.276-18.444 18.444s8.276 18.444 18.444 18.444v0zM468.643 453.701c4.686 4.698 6.782 11.397 5.614 17.926s-5.469 12.071-11.505 14.842l-192.729 88.317 19.697 19.685 257.036-46.803c6.578-1.193 13.264 0.916 17.962 5.614l130.578 130.566c15.553 15.541 32.961 21.721 49.032 17.42 13.601-3.638 24.323-14.384 27.985-28.034 4.397-16.42-1.976-34.25-17.926-50.212l-129.711-129.699c-4.747-4.747-6.831-11.529-5.578-18.119l18.287-96.28c-22.612-4.397-45.345-7.554-68.030-9.565l-8.879 19.372c-2.759 6.036-8.312 10.336-14.842 11.505-1.193 0.217-2.385 0.325-3.578 0.325-5.337 0-10.505-2.108-14.336-5.939l-27.54-27.54c-35.382 0.831-71.162 4.71-106.665 11.493l75.125 75.125zM900.301 189.786h-32.913v227.087c22.54 8.288 38.707 29.925 38.707 55.32 0 32.527-26.455 58.982-58.982 58.982s-58.982-26.455-58.982-58.982c0-14.818 5.53-28.347 14.589-38.719-40.213-19.227-82.558-34.551-125.759-45.622l-16.035 84.39 122.121 122.121c26.251 26.238 36.611 58.814 28.419 89.365-7.385 27.6-29.094 49.321-56.633 56.706-30.238 8.096-62.368-2.072-88.197-27.913l-123.073-123.061-257.036 46.803c-6.554 1.193-13.264-0.904-17.962-5.614l-47.827-47.815c-4.686-4.698-6.795-11.384-5.614-17.926 1.169-6.53 5.469-12.071 11.505-14.842l192.729-88.305-69.379-69.379-24.696 2.903c-34.635 10.373-68.512 23.504-101.003 39.165 8.553 10.24 13.71 23.395 13.71 37.743 0 32.527-26.455 58.982-58.982 58.982s-58.982-26.455-58.982-58.982c0-26.467 17.528-48.923 41.586-56.356v-226.051h-32.913c-11.192 0-20.275-9.083-20.275-20.275s9.083-20.275 20.275-20.275h106.376c11.192 0 20.275 9.083 20.275 20.275s-9.083 20.275-20.275 20.275h-32.913v210.378c16.432-8.072 33.19-15.589 50.248-22.395l-21.384-21.384c-4.373-4.373-6.505-10.493-5.807-16.637s4.168-11.637 9.421-14.902l101.436-63.211 63.006-101.219c3.265-5.253 8.746-8.722 14.89-9.433 6.156-0.663 12.276 1.434 16.649 5.807l37.78 37.78c4.409 4.409 6.542 10.577 5.795 16.757l-7.782 64.657 50.357 50.357c9.096 0.036 18.227 0.301 27.371 0.723l79.944-174.429c2.759-6.036 8.3-10.336 14.842-11.505 1.193-0.217 2.385-0.325 3.578-0.325 5.325 0 10.505 2.096 14.336 5.939l47.815 47.815c4.747 4.734 6.831 11.529 5.578 18.119l-25.696 135.313c49.019 12.384 96.991 29.925 142.3 52.176v-210.378h-32.913c-11.192 0-20.275-9.083-20.275-20.275s9.083-20.275 20.275-20.275h106.376c11.192 0 20.263 9.083 20.263 20.275s-9.071 20.275-20.263 20.275v0z" />
<glyph unicode="&#xe639;" glyph-name="lounge" d="M569.108 398.119v136.529h138.999v-136.529c0-36.346-31.816-67.042-69.499-67.042-37.671 0-69.499 30.696-69.499 67.042v0zM569.108 575.187v127.422h138.999v-127.422h-138.999zM748.657 398.119v324.765c0 11.192-9.083 20.275-20.275 20.275h-179.549c-11.192 0-20.263-9.083-20.263-20.275v-324.765c0-50.574 37.912-94.28 86.871-105.014v-111.761h-63.705c-11.192 0-20.275-9.083-20.275-20.275s9.083-20.263 20.275-20.263h173.755c11.192 0 20.263 9.071 20.263 20.263s-9.071 20.275-20.263 20.275h-69.499v110.725c51.718 8.445 92.666 53.501 92.666 106.050v0zM375.080 331.071c-36.731 0-66.608 30.082-66.608 67.042v188.657h133.216v-188.657c0-36.96-29.877-67.042-66.608-67.042v0zM308.472 627.32v75.294h133.216v-75.294h-133.216zM461.964 743.153h-173.767c-11.192 0-20.263-9.071-20.263-20.275v-324.765c0-52.357 37.466-96.051 86.871-105.592v-111.182h-69.499c-11.192 0-20.275-9.071-20.275-20.263s9.083-20.275 20.275-20.275h173.755c11.192 0 20.275 9.083 20.275 20.275s-9.083 20.263-20.275 20.263h-63.705v111.182c49.417 9.541 86.871 53.236 86.871 105.592v324.765c0 11.204-9.071 20.275-20.263 20.275v0z" />
<glyph unicode="&#xe63a;" glyph-name="spinner1" d="M122.874 352.141c-39.885 0-72.061 32.174-72.061 72.061s32.174 72.061 72.061 72.061 72.061-32.174 72.061-72.061-31.841-72.061-72.061-72.061zM239.174 614.914c-49.605 0-90.161 40.556-90.161 90.161s40.556 90.161 90.161 90.161 90.161-40.556 90.161-90.161-40.556-90.161-90.161-90.161zM239.174 71.273c-39.548 0-72.061 32.848-72.061 72.061 0 39.885 32.848 72.061 72.061 72.061 39.885 0 72.061-32.174 72.061-72.061 0-39.214-32.174-72.061-72.061-72.061zM520.043 713.117c-59.659 0-108.259 48.599-108.259 108.259s48.599 108.259 108.259 108.259 108.259-48.599 108.259-108.259-48.599-108.259-108.259-108.259zM520.043-44.693c-39.885 0-72.061 32.174-72.061 72.061s32.174 72.061 72.061 72.061 72.061-32.174 72.061-72.061-32.174-72.061-72.061-72.061zM800.915 579.051c-70.049 0-126.358 56.308-126.358 126.358 0 69.379 56.308 126.358 126.358 126.358 69.379 0 126.358-56.979 126.358-126.358 0-70.049-56.979-126.358-126.358-126.358zM800.915 71.273c-39.885 0-72.061 32.848-72.061 72.061 0 39.885 32.174 72.061 72.061 72.061 39.548 0 72.061-32.174 72.061-72.061 0-39.214-32.512-72.061-72.061-72.061zM916.882 352.141c-39.885 0-72.061 32.174-72.061 72.061s32.174 72.061 72.061 72.061 72.061-32.174 72.061-72.061-31.841-72.061-72.061-72.061z" />
<glyph unicode="&#xe63b;" glyph-name="spinner2" d="M311.794 440.85c0-27.885-13.943-41.828-41.828-41.828h-208.429c-27.885 0-41.828 13.943-41.828 41.828s13.943 41.828 41.828 41.828h208.429c27.885 0 41.828-13.943 41.828-41.828zM103.009 633.907c-24.31 12.156-29.674 31.105-15.732 57.202 12.156 24.31 31.46 29.315 57.202 15.732l179.828-104.393c24.31-12.156 29.674-31.105 15.732-57.202-12.156-24.31-31.46-29.674-57.202-15.732l-179.828 104.393zM340.395 336.458c13.943-26.097 8.579-45.045-15.732-57.202l-179.828-104.393c-26.097-13.943-45.045-8.579-57.202 15.732-13.943 26.097-8.579 45.045 15.732 57.202l179.828 104.393c25.741 13.943 45.045 8.579 57.202-15.732zM327.524 858.063l104.393-179.828c13.943-26.097 8.579-45.045-15.732-57.202-26.097-13.943-45.045-8.579-57.202 15.732l-104.393 179.828c-13.943 26.097-8.579 45.045 15.732 57.202 25.741 13.585 44.69 8.579 57.202-15.732zM415.828 261.023c24.31-12.156 29.674-31.46 15.732-57.202l-104.393-179.828c-12.156-24.31-31.46-29.674-57.202-15.732-24.31 12.156-29.674 31.46-15.732 57.202l104.393 179.828c12.156 24.31 31.46 29.674 57.202 15.732zM520.223 941.365c27.885 0 41.828-13.943 41.828-41.828v-208.429c0-27.885-13.943-41.828-41.828-41.828s-41.828 13.943-41.828 41.828v208.429c0 27.885 13.943 41.828 41.828 41.828zM520.223 232.42c27.885 0 41.828-13.943 41.828-41.828v-208.429c0-27.885-13.943-41.828-41.828-41.828s-41.828 13.943-41.828 41.828v208.429c0 27.885 13.943 41.828 41.828 41.828zM624.617 620.677c-24.31 12.156-29.674 31.46-15.732 57.202l104.393 179.828c12.156 24.31 31.105 29.674 57.202 15.732 24.31-12.156 29.315-31.105 15.732-57.202l-104.393-179.828c-12.156-24.31-31.105-29.674-57.202-15.732zM681.817 245.292l104.393-179.828c13.943-26.097 8.579-45.045-15.732-57.202-26.097-13.943-45.045-8.579-57.202 15.732l-104.393 179.828c-13.943 26.097-8.579 45.045 15.732 57.202 26.097 13.943 45.045 8.579 57.202-15.732zM937.437 247.794c24.31-12.156 29.674-31.46 15.732-57.202-12.156-24.31-31.105-29.674-57.202-15.732l-180.186 104.393c-24.31 12.156-29.674 31.46-15.732 57.202 12.156 24.31 31.46 29.674 57.202 15.732l180.186-104.393zM700.051 545.243c-13.943 26.097-8.579 45.045 15.732 57.202l179.828 104.393c26.097 13.943 45.045 8.579 57.202-15.732 13.943-26.097 8.579-45.045-15.732-57.202l-179.828-104.393c-25.741-13.943-45.045-8.579-57.202 15.732zM979.268 482.679c27.885 0 41.828-13.943 41.828-41.828s-13.943-41.828-41.828-41.828h-208.787c-27.885 0-41.828 13.943-41.828 41.828s13.943 41.828 41.828 41.828h208.787z" />
<glyph unicode="&#xe63c;" glyph-name="spinner3" d="M989.277 504.979c0-8.38-0.669-14.749-2.011-18.77-11.061-22.454-27.149-27.149-48.265-14.749-7.041 2.681-11.73 10.39-14.749 23.126-1.342 2.681-2.011 7.374-2.011 13.742s-0.669 11.396-2.011 15.753c-8.38 40.556-23.797 81.111-45.917 121.33-27.819 47.259-60.665 86.473-98.539 117.31-36.197 29.161-79.434 52.287-129.709 69.045-44.578 12.401-89.487 18.77-134.065 18.77h-8.38c-2.681 0-6.367-0.334-10.39-1.007s-7.041-1.007-8.38-1.007c-11.061 0-25.139-1.342-41.897-4.022-23.797-4.022-49.605-11.73-77.422-23.126-43.236-16.759-83.121-41.226-119.319-73.402-33.516-29.494-62.676-65.693-87.813-108.929-25.139-45.917-41.897-94.851-50.275-146.467-2.681-15.417-4.022-39.214-4.022-71.39 0-15.417 0.669-26.477 2.011-33.516 0-4.022 0.669-10.724 2.011-19.775s2.681-15.753 4.022-19.775c11.061-52.957 30.836-99.879 58.655-140.434 29.494-44.578 62.676-81.111 100.55-108.929 41.897-30.836 87.143-53.627 136.077-69.045 50.275-14.077 103.231-18.77 159.203-14.749 51.614 4.022 102.561 18.098 152.836 41.897 19.44 8.38 41.897 21.787 67.033 39.885 20.782 15.417 39.885 32.174 56.644 50.275 5.698 5.698 14.077 15.417 25.139 29.494 5.363 7.041 12.401 17.428 20.782 31.505 16.759 27.819 14.749 28.155 21.787 43.571 11.061 22.454 46.923 91.165 46.923 93.846 2.681-20.782-20.782-88.149-23.462-93.846-1.342-7.041-13.742-37.204-22.121-53.962-15.417-26.477-29.161-47.594-41.897-62.676-22.454-25.139-39.885-43.236-52.287-54.297-34.858-29.494-78.095-54.297-129.709-75.413-47.594-18.098-98.539-28.487-152.836-31.505-51.614-2.681-103.901 5.028-157.191 23.126-44.578 14.077-90.161 36.868-136.077 69.045-40.556 29.494-75.413 64.353-104.571 104.571-15.417 22.454-27.819 43.907-37.537 65.023-9.721 23.797-18.77 46.588-27.149 69.045-11.061 34.858-18.098 74.073-20.782 117.31-1.342 39.214 2.011 79.434 10.39 121.33 9.721 47.259 29.494 94.851 58.655 142.445 22.454 36.197 51.614 71.39 87.813 104.571 32.174 30.836 70.385 55.972 115.299 75.413 52.957 25.139 104.571 39.885 154.847 43.907 14.077 1.342 34.188 2.011 60.665 2.011 19.44 0 45.917-2.681 79.434-8.38 48.934-9.721 96.193-27.819 142.445-54.297 44.578-25.139 84.463-58.655 119.319-100.55 32.174-39.214 57.313-79.434 75.413-121.33 5.698-14.077 12.401-36.197 21.115-67.033 7.374-31.505 11.73-49.605 11.73-54.967z" />
<glyph unicode="&#xe63d;" glyph-name="external-link" d="M661.339 548.813v-329.294c0-21.034-17.119-38.153-38.165-38.153h-339.655c-21.034 0-38.153 17.119-38.153 38.153v329.294c0 21.046 17.119 38.165 38.153 38.165h339.655c4.192 0 8.204-0.699 11.975-1.952l-186.513-186.513c-7.927-7.927-7.927-20.769 0-28.684 3.963-3.963 9.144-5.939 14.336-5.939s10.385 1.976 14.336 5.939l183.706 183.706c0.193-1.554 0.325-3.12 0.325-4.722v0zM822.589 722.869c0 11.204-9.083 20.275-20.287 20.275l-181.513 0.012c-11.204 0-20.275-9.083-20.275-20.287s9.071-20.275 20.275-20.275l131.915-0.012-87.389-87.389c-12.192 7.782-26.624 12.348-42.141 12.348h-339.655c-43.406 0-78.715-35.322-78.715-78.728v-329.294c0-43.406 35.31-78.715 78.715-78.715h339.655c43.406 0 78.728 35.31 78.728 78.715v329.294c0 13.192-3.301 25.612-9.059 36.551l89.184 89.172v-133.18c0-11.204 9.083-20.287 20.287-20.287 11.192 0 20.275 9.083 20.275 20.287v181.513z" />
<glyph unicode="&#xe63e;" glyph-name="promo" d="M38.94 439.098l454.019 456.245c17.063 17.063 38.577 25.718 64.295 25.718l214.151 8.656h8.656c27.202 0 49.21-9.397 66.521-27.944l104.849-104.849c18.547-18.547 27.944-42.039 27.944-70.724v-8.656l-15.084-209.947v-4.205c-2.967-20.030-9.891-37.093-21.514-51.435l-12.858-10.633-447.837-454.266c-12.858-11.375-28.191-16.816-45.995-16.074s-32.395 6.677-44.017 18.299l-353.373 357.824c-12.858 12.858-19.288 28.191-19.288 45.995 0.247 17.804 6.677 33.137 19.535 45.995zM842.375 689.847c0 28.438-9.891 52.919-29.921 72.949s-44.264 29.921-72.949 29.921c-28.438 0-52.919-9.891-72.949-29.921s-29.921-44.264-29.921-72.949c0-28.686 9.891-52.919 29.921-72.949s44.264-29.921 72.949-29.921c28.686 0 52.919 9.891 72.949 29.921s29.921 44.264 29.921 72.949z" />
<glyph unicode="&#xe63f;" glyph-name="not-combinable" d="M829.44 69.12h-634.88c-33.792 0-61.44 27.648-61.44 61.44v634.88c0 33.792 27.648 61.44 61.44 61.44h634.88c33.792 0 61.44-27.648 61.44-61.44v-634.88c0-33.792-27.648-61.44-61.44-61.44zM194.56 785.92c-11.264 0-20.48-9.216-20.48-20.48v-634.88c0-11.264 9.216-20.48 20.48-20.48h634.88c11.264 0 20.48 9.216 20.48 20.48v634.88c0 11.264-9.216 20.48-20.48 20.48h-634.88zM409.6 197.12v501.76l250.88-250.88z" />
<glyph unicode="&#xe640;" glyph-name="printer" d="M818.187 263.939h-69.388c-13.595 0-24.615 11.020-24.615 24.615s11.020 24.615 24.615 24.615h69.388c44.7 0 80.929 27.172 80.929 60.479v198.668c0 33.452-36.373 60.479-80.929 60.479h-612.373c-44.7 0-80.929-27.172-80.929-60.479v-198.379c0-33.452 36.373-60.479 80.929-60.479h69.388c13.595 0 24.615-11.020 24.615-24.615s-11.020-24.615-24.615-24.615h-69.388c-71.727 0-130.159 49.231-130.159 109.705v198.379c0 60.479 58.432 109.705 130.159 109.705h612.224c71.727 0 130.159-49.231 130.159-109.705v-198.379c0.144-60.768-58.288-109.998-130.011-109.998zM749.53 82.944h-475.054c-13.554 0-24.543 10.989-24.543 24.543v321.379c0 13.554 10.989 24.543 24.543 24.543h475.054c13.554 0 24.543-10.989 24.543-24.543v-321.379c0-13.554-10.989-24.543-24.543-24.543zM299.015 132.174h425.824v272.586h-425.824v-272.586zM749.53 632.498h-475.054c-13.554 0-24.543 10.989-24.543 24.543v131.472c0 13.554 10.989 24.543 24.543 24.543h475.054c13.554 0 24.543-10.989 24.543-24.543v-131.472c0-13.554-10.989-24.543-24.543-24.543zM299.015 681.728h425.824v82.534h-425.824v-82.534zM612.649 294.762h-201.3c-13.595 0-24.615 11.020-24.615 24.615s11.020 24.615 24.615 24.615h201.445c13.561-0.042 24.543-11.045 24.543-24.615 0-13.595-11.020-24.615-24.615-24.615-0.025 0-0.050 0-0.076 0zM612.649 192.504h-201.3c-13.595 0-24.615 11.020-24.615 24.615s11.020 24.615 24.615 24.615h201.445c13.561-0.042 24.543-11.045 24.543-24.615 0-13.595-11.020-24.615-24.615-24.615-0.025 0-0.050 0-0.076 0zM795.105 523.816c-0.724-0.083-1.56-0.129-2.412-0.129s-1.687 0.046-2.512 0.137c-1.617 0.346-3.13 0.849-4.561 1.507-1.485 0.564-2.881 1.3-4.173 2.183-1.293 0.905-2.486 1.913-3.579 3.018-1.111 1.138-2.12 2.378-3.011 3.705-0.859 1.307-1.594 2.7-2.191 4.167-0.679 1.508-1.184 3.075-1.5 4.707-0.333 1.557-0.507 3.197-0.507 4.88s0.178 3.322 0.516 4.902c0.311 1.613 0.816 3.177 1.486 4.653 0.564 1.488 1.3 2.884 2.184 4.175 0.908 1.293 1.916 2.485 3.019 3.581 1.134 1.121 2.374 2.131 3.711 3.013 1.304 0.858 2.697 1.592 4.166 2.189 1.459 0.661 2.972 1.164 4.554 1.497 1.59 0.325 3.256 0.5 4.959 0.5s3.372-0.175 4.979-0.502c1.604-0.311 3.172-0.816 4.648-1.486 1.498-0.599 2.892-1.337 4.197-2.193 1.271-0.897 2.463-1.908 3.56-3.010 1.134-1.088 2.143-2.282 3.018-3.577 0.851-1.294 1.589-2.688 2.184-4.153 0.682-1.506 1.187-3.074 1.5-4.707 0.328-1.554 0.507-3.194 0.507-4.877s-0.178-3.322-0.516-4.902c-0.304-1.612-0.813-3.176-1.486-4.651-0.599-1.5-1.338-2.894-2.194-4.199-0.894-1.329-1.903-2.573-3.016-3.714-1.092-1.103-2.284-2.114-3.563-3.008-1.303-0.892-2.699-1.628-4.179-2.198-1.483-0.665-3.050-1.17-4.681-1.486-0.875-0.113-1.739-0.163-2.616-0.163s-1.737 0.051-2.585 0.154zM685.251 523.816c-0.724-0.083-1.56-0.129-2.412-0.129s-1.687 0.046-2.512 0.137c-1.617 0.346-3.13 0.849-4.561 1.507-1.484 0.547-2.881 1.285-4.167 2.176-1.299 0.909-2.492 1.917-3.586 3.026-1.080 1.144-2.091 2.382-3.003 3.696-0.836 1.305-1.569 2.697-2.188 4.151-0.656 1.52-1.16 3.081-1.504 4.702-0.339 1.591-0.518 3.231-0.518 4.909s0.178 3.322 0.516 4.902c0.345 1.629 0.848 3.194 1.497 4.68 0.632 1.484 1.365 2.876 2.199 4.197 0.883 1.24 1.89 2.436 2.994 3.532 1.099 1.109 2.296 2.116 3.568 3.013 1.302 0.872 2.696 1.611 4.17 2.193 1.446 0.656 2.963 1.16 4.541 1.488 1.59 0.325 3.256 0.5 4.959 0.5s3.372-0.175 4.979-0.502c1.557-0.327 3.074-0.83 4.502-1.488 1.498-0.607 2.891-1.342 4.198-2.194 1.262-0.897 2.458-1.908 3.556-3.009 1.133-1.088 2.142-2.282 3.017-3.576 0.904-1.298 1.685-2.69 2.326-4.156 0.592-1.441 1.094-3.004 1.478-4.608 0.349-1.649 0.526-3.29 0.526-4.972s-0.176-3.322-0.507-4.903c-0.404-1.674-0.905-3.237-1.512-4.742-0.623-1.401-1.408-2.797-2.31-4.093-1.691-2.693-3.941-4.99-6.585-6.733-1.302-0.883-2.698-1.619-4.176-2.193-1.439-0.653-2.952-1.156-4.534-1.485-0.864-0.108-1.703-0.154-2.551-0.154s-1.687 0.047-2.512 0.138z" />
<glyph unicode="&#xe641;" glyph-name="sports-equipment" d="M792.057 215.522c-2.253-5.289-6.433-9.385-11.77-11.541l-44.731-18.022c-5.228-0.687-13.866 0.976-25.757 30.503l-2.518 6.24 56.32 22.709c5.337 2.132 11.18 2.084 16.48-0.169 5.289-2.253 9.385-6.421 11.541-11.758v-0.024l0.59-1.458c2.144-5.337 2.096-11.192-0.157-16.48v0zM542.141 361.135c-9.903 2.952-20.384 4.602-31.238 4.602-60.344 0-109.448-49.104-109.448-109.448 0-3.217 0.217-6.373 0.482-9.505-50.26-32.901-94.172-54.067-125.542-60.536-3.144 2.855-7.349 6.927-11.987 11.505l293.418 293.418 30.082-74.644c-13.842-18.805-29.058-37.406-45.767-55.392v0zM510.903 185.115c-39.237 0-71.174 31.925-71.174 71.174 0 39.237 31.937 71.162 71.174 71.162 39.249 0 71.174-31.925 71.174-71.162 0-39.249-31.925-71.174-71.174-71.174v0zM374.060 471.835c40.767 40.755 85.691 76.92 133.602 107.737 5-1.867 10.312-2.988 15.842-3.229l18.781-46.586-304.646-304.646c-2.686 2.843-5.060 5.385-6.915 7.421 7.867 60.946 97.4 193.355 143.336 239.303v0zM490.326 709.885c3.409 1.361 7.108 1.325 10.469-0.108 3.361-1.422 5.963-4.084 7.325-7.469 0.072-0.181 0.157-0.373 0.241-0.566l30.274-68.741c0.253-0.663 0.422-1.337 0.566-2.012 0.012-1.084 0.133-2.144 0.337-3.229-0.048-1.687-0.41-3.385-1.084-4.987-1.434-3.361-4.084-5.963-7.469-7.325-6.987-2.819-15.047 0.747-17.794 7.566-0.072 0.193-0.157 0.373-0.241 0.566l-30.274 68.741c-2.662 6.927 0.735 14.77 7.65 17.565v0zM697.283 630.615c-15.48-46.453-41.683-110.857-83.378-176.188l-26.66 66.15 110.038 110.038zM559.753 588.8c9.192 7.939 15.227 18.83 17.263 30.612 36.153 18.312 68.716 31.178 95.003 40.081l-100.328-100.328-11.939 29.636zM827.716 246.326l-0.602 1.482c-5.975 14.806-17.348 26.407-32.045 32.66-14.697 6.264-30.961 6.421-45.779 0.446l-56.32-22.697-61.669 153.034c94.726 136.505 121.543 274.649 122.856 281.66 1.132 6.108-0.759 12.396-5.108 16.854-4.337 4.469-10.577 6.554-16.721 5.554-3.012-0.482-70.511-11.601-163.021-56.971l-25.805 58.585c-5.228 12.722-15.059 22.685-27.72 28.070-12.77 5.433-26.889 5.566-39.755 0.386-26.576-10.722-39.478-41.044-28.768-67.608 0.072-0.181 0.157-0.373 0.241-0.554l30.322-68.837c0.265-0.663 0.651-1.253 0.952-1.903-47.14-31.118-91.401-67.211-131.771-107.58-46.417-46.417-153.142-197.319-155.070-272.047-0.241-9.059 2.373-12.071 26.251-36.78 10.553-10.927 24.974-25.419 33.816-33.334 5.228-4.674 11.083-9.915 19.311-9.915 0.879 0 1.795 0.060 2.747 0.181 43.080 5.915 96.148 34.214 138.674 61.199 17.842-36.286 55.079-61.38 98.171-61.38 60.356 0 109.448 49.104 109.448 109.46 0 35.322-16.89 66.693-42.936 86.715 9.529 10.601 18.565 21.347 27.154 32.19l60.030-148.986c0-0.012 0.012-0.036 0.012-0.048 0.024-0.048 0.036-0.084 0.060-0.133l9.626-23.877c9.698-24.082 26.106-54.621 58.97-54.621 3.506 0 7.204 0.349 11.095 1.096 1.229 0.229 2.421 0.59 3.578 1.048l46.658 18.805c14.818 5.975 26.419 17.348 32.684 32.057 6.252 14.697 6.409 30.949 0.434 45.791v0zM766.445 412.056c15.071 0 27.347-12.264 27.347-27.347 0-15.071-12.276-27.335-27.347-27.335s-27.347 12.264-27.347 27.335c0 15.083 12.276 27.347 27.347 27.347zM700.824 384.71c0-36.177 29.431-65.62 65.62-65.62s65.62 29.443 65.62 65.62c0 36.189-29.431 65.632-65.62 65.632s-65.62-29.443-65.62-65.632z" />
</font>
</defs>
</svg>
